<svg width="458" height="421" viewBox="0 0 458 421" fill="none" xmlns="http://www.w3.org/2000/svg">
<g clip-path="url(#clip0_521_81)">
<path d="M71.48 381.26C157.87 422.43 297.94 422.43 384.33 381.26C470.72 340.09 470.72 273.33 384.33 232.15C297.94 190.97 157.87 190.98 71.48 232.15C-14.91 273.32 -14.91 340.08 71.48 381.26Z" fill="#C8EDCA"/>
<path d="M243 356.12C257.171 356.12 268.66 350.644 268.66 343.89C268.66 337.136 257.171 331.66 243 331.66C228.828 331.66 217.34 337.136 217.34 343.89C217.34 350.644 228.828 356.12 243 356.12Z" fill="#004D95"/>
<path d="M121.39 236.51L75.0798 209.77L28.7598 236.51L75.0798 263.25L121.39 236.51Z" fill="#C8EDCA"/>
<path d="M75.0801 298.91L121.39 272.17V236.51L75.0801 263.25V298.91Z" fill="#EBEBEB"/>
<path d="M82 290.64C81.9085 290.642 81.8183 290.618 81.74 290.57C81.6463 290.509 81.5708 290.424 81.5215 290.324C81.4722 290.223 81.451 290.111 81.46 290V289.35C81.46 289.286 81.4853 289.225 81.5303 289.18C81.5754 289.135 81.6364 289.11 81.7 289.11C81.7311 289.11 81.7619 289.116 81.7904 289.128C81.819 289.141 81.8448 289.158 81.8663 289.181C81.8878 289.203 81.9045 289.23 81.9155 289.259C81.9264 289.288 81.9314 289.319 81.93 289.35V290C81.93 290.1 81.93 290.15 81.93 290.16C81.93 290.17 82 290.16 82.09 290.16C82.2346 290.021 82.3485 289.853 82.4243 289.667C82.5 289.481 82.5361 289.281 82.53 289.08V284.86C82.53 284.799 82.5543 284.74 82.5974 284.697C82.6405 284.654 82.699 284.63 82.76 284.63C82.7911 284.629 82.8221 284.634 82.8511 284.645C82.8802 284.655 82.9068 284.672 82.9292 284.694C82.9516 284.715 82.9695 284.741 82.9816 284.77C82.9938 284.798 83.0001 284.829 83 284.86V289C83.0106 289.283 82.9557 289.565 82.8395 289.823C82.7233 290.082 82.5489 290.31 82.33 290.49C82.2326 290.564 82.1199 290.615 82 290.64Z" fill="#004D95"/>
<path d="M79.48 287V286.59C79.532 285.538 79.8306 284.513 80.3517 283.597C80.8729 282.682 81.6019 281.902 82.48 281.32C82.7945 281.044 83.1878 280.873 83.6045 280.832C84.0211 280.791 84.4401 280.882 84.8023 281.092C85.1646 281.302 85.4519 281.62 85.6237 282.002C85.7955 282.384 85.8432 282.81 85.76 283.22V283.35L79.48 287ZM83.94 281.37C83.5206 281.385 83.113 281.513 82.76 281.74C82.0044 282.232 81.3645 282.882 80.8846 283.645C80.4046 284.408 80.096 285.266 79.98 286.16L85.32 283.08C85.3383 282.78 85.2801 282.48 85.1506 282.209C85.0211 281.938 84.8248 281.704 84.58 281.53C84.3906 281.401 84.1688 281.329 83.94 281.32V281.37Z" fill="#004D95"/>
<path d="M90.5099 285.77C90.4489 285.77 90.3904 285.746 90.3473 285.703C90.3041 285.66 90.2799 285.601 90.2799 285.54V278.72C90.2727 278.685 90.2733 278.649 90.2817 278.614C90.2902 278.58 90.3063 278.547 90.3288 278.52C90.3513 278.492 90.3797 278.47 90.4119 278.455C90.4441 278.439 90.4793 278.431 90.5149 278.431C90.5506 278.431 90.5858 278.439 90.618 278.455C90.6502 278.47 90.6785 278.492 90.701 278.52C90.7236 278.547 90.7396 278.58 90.7481 278.614C90.7565 278.649 90.7571 278.685 90.7499 278.72V285.54C90.7499 285.571 90.7437 285.602 90.7315 285.63C90.7193 285.659 90.7015 285.685 90.679 285.706C90.6566 285.728 90.6301 285.745 90.601 285.755C90.5719 285.766 90.5409 285.771 90.5099 285.77Z" fill="#004D95"/>
<path d="M89.8199 280.56C89.7871 280.568 89.7527 280.568 89.7199 280.56C89.6912 280.548 89.6652 280.53 89.6435 280.508C89.6218 280.486 89.6048 280.46 89.5936 280.431C89.5824 280.402 89.5772 280.371 89.5783 280.34C89.5793 280.309 89.5867 280.278 89.5999 280.25L90.4499 278.25L91.3899 279.34C91.4321 279.385 91.4556 279.444 91.4556 279.505C91.4556 279.566 91.4321 279.625 91.3899 279.67C91.3676 279.692 91.3411 279.71 91.3119 279.722C91.2827 279.734 91.2515 279.741 91.2199 279.741C91.1883 279.741 91.157 279.734 91.1278 279.722C91.0986 279.71 91.0722 279.692 91.0499 279.67L90.5999 279.15L90.0599 280.41C90.0409 280.457 90.0075 280.497 89.9643 280.524C89.9212 280.551 89.8706 280.564 89.8199 280.56Z" fill="#004D95"/>
<path d="M92.7097 284.52C92.6461 284.52 92.585 284.495 92.54 284.45C92.495 284.405 92.4697 284.344 92.4697 284.28V277.47C92.4697 277.406 92.495 277.345 92.54 277.3C92.585 277.255 92.6461 277.23 92.7097 277.23C92.7734 277.23 92.8344 277.255 92.8794 277.3C92.9244 277.345 92.9497 277.406 92.9497 277.47V284.28C92.9497 284.344 92.9244 284.405 92.8794 284.45C92.8344 284.495 92.7734 284.52 92.7097 284.52Z" fill="#004D95"/>
<path d="M92 279.31H91.9C91.8714 279.298 91.8454 279.28 91.8237 279.258C91.802 279.236 91.785 279.21 91.7738 279.181C91.7626 279.152 91.7574 279.121 91.7584 279.09C91.7595 279.059 91.7669 279.028 91.78 279L92.62 277L93.62 278.08C93.6629 278.126 93.6867 278.187 93.6867 278.25C93.6867 278.313 93.6629 278.374 93.62 278.42C93.5744 278.46 93.5158 278.482 93.455 278.482C93.3943 278.482 93.3357 278.46 93.29 278.42L92.84 277.9L92.29 279.16C92.2822 279.19 92.2682 279.218 92.249 279.242C92.2297 279.266 92.2057 279.285 92.1784 279.299C92.151 279.314 92.121 279.322 92.0903 279.324C92.0596 279.325 92.0288 279.321 92 279.31Z" fill="#004D95"/>
<path d="M75.0798 298.91L28.7598 272.17V236.51L75.0798 263.25V298.91Z" fill="#004D95"/>
<path d="M50.1699 284.53L53.6599 286.55V250.89L50.1699 248.87V284.53Z" fill="#EBEBEB"/>
<path d="M101.56 254.65L94.9099 258.48C94.2455 258.86 93.6773 259.388 93.249 260.023C92.8208 260.657 92.544 261.382 92.4399 262.14C92.4399 263.37 93.5499 263.73 94.9099 262.94L101.56 259.11C102.222 258.729 102.789 258.2 103.215 257.566C103.642 256.931 103.917 256.208 104.02 255.45C104 254.22 102.92 253.86 101.56 254.65Z" fill="#004D95"/>
<path d="M53.6599 250.89L99.9799 224.15L96.4899 222.13L50.1699 248.87L53.6599 250.89Z" fill="white"/>
<path d="M96.4899 250.89L50.1699 224.15L53.6599 222.13L99.9799 248.87L96.4899 250.89Z" fill="white"/>
<g style="mix-blend-mode:multiply" opacity="0.8">
<path d="M30.7798 235.34L75.1898 260.95L119.45 235.4L75.0798 209.77L30.7798 235.34Z" fill="#004D95"/>
</g>
<path d="M96.4897 254.47V250.89L99.9798 248.87V252.45L96.4897 254.47Z" fill="#C8EDCA"/>
<path d="M119.31 196.4L72.9899 169.66L26.6699 196.4L72.9899 223.14L119.31 196.4Z" fill="#C8EDCA"/>
<g style="mix-blend-mode:multiply" opacity="0.8">
<path d="M30.6099 196.81L74.5999 222.21L119.31 196.4L75.3199 171L30.6099 196.81Z" fill="#004D95"/>
</g>
<path d="M72.9897 258.8L119.31 232.05V196.4L72.9897 223.14V258.8Z" fill="#EBEBEB"/>
<path d="M79.9 250.53C79.8091 250.527 79.7201 250.503 79.64 250.46C79.5463 250.399 79.4707 250.314 79.4215 250.214C79.3722 250.113 79.3509 250.001 79.36 249.89V249.24C79.3527 249.205 79.3534 249.169 79.3618 249.134C79.3703 249.1 79.3863 249.067 79.4088 249.04C79.4313 249.012 79.4597 248.99 79.4919 248.974C79.5241 248.959 79.5593 248.951 79.595 248.951C79.6306 248.951 79.6658 248.959 79.698 248.974C79.7302 248.99 79.7586 249.012 79.7811 249.04C79.8036 249.067 79.8197 249.1 79.8281 249.134C79.8366 249.169 79.8372 249.205 79.83 249.24V249.89C79.83 249.99 79.83 250.04 79.83 250.05C79.83 250.06 79.9 250.05 79.98 250C80.1264 249.864 80.2416 249.698 80.3175 249.513C80.3935 249.329 80.4284 249.13 80.42 248.93V244.71C80.42 244.646 80.4453 244.585 80.4903 244.54C80.5353 244.495 80.5963 244.47 80.66 244.47C80.7236 244.47 80.7847 244.495 80.8297 244.54C80.8747 244.585 80.9 244.646 80.9 244.71V248.93C80.9126 249.213 80.8575 249.495 80.7392 249.752C80.6209 250.01 80.4429 250.235 80.22 250.41C80.1253 250.477 80.0151 250.518 79.9 250.53Z" fill="#004D95"/>
<path d="M77.3999 246.83V246.42C77.4535 245.37 77.7528 244.346 78.2739 243.433C78.7949 242.519 79.5231 241.741 80.3999 241.16C80.7143 240.889 81.1053 240.723 81.5185 240.684C81.9318 240.645 82.3468 240.736 82.7062 240.944C83.0655 241.151 83.3513 241.466 83.524 241.843C83.6967 242.22 83.7477 242.642 83.6699 243.05V243.19L77.3999 246.83ZM81.8599 241.2C81.4384 241.221 81.0292 241.349 80.6699 241.57C79.9168 242.066 79.2795 242.718 78.8015 243.483C78.3235 244.247 78.0159 245.106 77.8999 246L83.2399 242.92C83.2592 242.62 83.2014 242.32 83.0718 242.049C82.9423 241.777 82.7454 241.544 82.4999 241.37C82.3057 241.257 82.0846 241.198 81.8599 241.2Z" fill="#004D95"/>
<path d="M88.4299 245.66C88.3663 245.66 88.3052 245.635 88.2602 245.59C88.2152 245.545 88.1899 245.484 88.1899 245.42V238.61C88.1899 238.546 88.2152 238.485 88.2602 238.44C88.3052 238.395 88.3663 238.37 88.4299 238.37C88.4936 238.37 88.5546 238.395 88.5996 238.44C88.6447 238.485 88.6699 238.546 88.6699 238.61V245.42C88.6699 245.484 88.6447 245.545 88.5996 245.59C88.5546 245.635 88.4936 245.66 88.4299 245.66Z" fill="#004D95"/>
<path d="M87.7398 240.45H87.6398C87.6111 240.438 87.5851 240.42 87.5634 240.398C87.5417 240.376 87.5248 240.35 87.5136 240.321C87.5023 240.292 87.4971 240.261 87.4982 240.23C87.4993 240.199 87.5066 240.168 87.5198 240.14L88.3598 238.19L89.3598 239.27C89.4027 239.316 89.4265 239.377 89.4265 239.44C89.4265 239.503 89.4027 239.564 89.3598 239.61C89.3142 239.65 89.2555 239.672 89.1948 239.672C89.1341 239.672 89.0754 239.65 89.0298 239.61L88.5798 239.09L88.0298 240.35C88.0022 240.399 87.9574 240.437 87.9039 240.455C87.8504 240.474 87.792 240.472 87.7398 240.45Z" fill="#004D95"/>
<path d="M90.6301 244.41C90.5665 244.41 90.5054 244.385 90.4604 244.34C90.4154 244.295 90.3901 244.234 90.3901 244.17V237.35C90.3901 237.286 90.4154 237.225 90.4604 237.18C90.5054 237.135 90.5665 237.11 90.6301 237.11C90.6938 237.11 90.7548 237.135 90.7998 237.18C90.8449 237.225 90.8701 237.286 90.8701 237.35V244.17C90.8701 244.234 90.8449 244.295 90.7998 244.34C90.7548 244.385 90.6938 244.41 90.6301 244.41Z" fill="#004D95"/>
<path d="M89.9299 239.2H89.8399C89.7812 239.174 89.735 239.126 89.7108 239.066C89.6866 239.006 89.6862 238.94 89.7099 238.88L90.5599 236.93L91.4999 238.02C91.5223 238.042 91.54 238.069 91.5522 238.098C91.5643 238.127 91.5705 238.158 91.5705 238.19C91.5705 238.222 91.5643 238.253 91.5522 238.282C91.54 238.311 91.5223 238.338 91.4999 238.36C91.4537 238.403 91.393 238.427 91.3299 238.427C91.2669 238.427 91.2061 238.403 91.1599 238.36L90.7199 237.84L90.1699 239.1C90.1429 239.137 90.1063 239.166 90.0639 239.184C90.0216 239.201 89.9752 239.207 89.9299 239.2Z" fill="#004D95"/>
<path d="M72.9899 258.8L26.6699 232.05V196.4L72.9899 223.14V258.8Z" fill="#004D95"/>
<path d="M48.0898 244.42L51.5798 246.43V210.78L48.0898 208.76V244.42Z" fill="#EBEBEB"/>
<path d="M99.4699 214.54L92.8299 218.37C92.1654 218.75 91.5972 219.278 91.169 219.913C90.7407 220.547 90.4639 221.272 90.3599 222.03C90.3599 223.26 91.4699 223.62 92.8299 222.83L99.4699 218.99C100.138 218.616 100.709 218.091 101.137 217.458C101.566 216.824 101.841 216.099 101.94 215.34C101.94 214.11 100.84 213.75 99.4699 214.54Z" fill="#004D95"/>
<path d="M51.5798 210.78L97.8998 184.04L94.4099 182.02L48.0898 208.76L51.5798 210.78Z" fill="white"/>
<path d="M94.4099 210.78L48.0898 184.04L51.5798 182.02L97.8998 208.76L94.4099 210.78Z" fill="white"/>
<path d="M94.4102 214.36V210.78L97.9002 208.76V212.34L94.4102 214.36Z" fill="#C8EDCA"/>
<g style="mix-blend-mode:multiply" opacity="0.8">
<path d="M74.6001 222.21L78.7701 224.62L119.31 201.21V196.4L74.6001 222.21Z" fill="#004D95"/>
</g>
<path d="M123.95 160.74L77.6398 134L31.3198 160.74L77.6398 187.48L123.95 160.74Z" fill="#C8EDCA"/>
<path d="M77.6401 223.14L123.95 196.4V160.74L77.6401 187.48V223.14Z" fill="#EBEBEB"/>
<path d="M84.5401 214.87C84.4515 214.873 84.3642 214.849 84.2901 214.8C84.1937 214.741 84.1156 214.657 84.0644 214.556C84.0132 214.455 83.9909 214.343 84.0001 214.23V213.58C84.0001 213.516 84.0253 213.455 84.0704 213.41C84.1154 213.365 84.1764 213.34 84.2401 213.34C84.3037 213.34 84.3648 213.365 84.4098 213.41C84.4548 213.455 84.4801 213.516 84.4801 213.58V214.23C84.4801 214.33 84.4801 214.38 84.4801 214.39C84.4801 214.4 84.5501 214.39 84.6401 214.39C84.7865 214.254 84.9016 214.088 84.9776 213.903C85.0536 213.719 85.0885 213.52 85.0801 213.32V209.1C85.0728 209.065 85.0734 209.029 85.0819 208.994C85.0903 208.96 85.1064 208.927 85.1289 208.9C85.1514 208.872 85.1798 208.85 85.212 208.835C85.2442 208.819 85.2794 208.811 85.3151 208.811C85.3507 208.811 85.3859 208.819 85.4181 208.835C85.4503 208.85 85.4787 208.872 85.5012 208.9C85.5237 208.927 85.5398 208.96 85.5482 208.994C85.5567 209.029 85.5573 209.065 85.5501 209.1V213.32C85.5606 213.602 85.5056 213.882 85.3894 214.139C85.2731 214.396 85.0987 214.622 84.8801 214.8C84.773 214.847 84.6571 214.871 84.5401 214.87Z" fill="#004D95"/>
<path d="M82 211.18V210.77C82.0544 209.718 82.354 208.694 82.8749 207.779C83.3958 206.864 84.1236 206.084 85 205.5C85.3145 205.224 85.7078 205.053 86.1245 205.012C86.5411 204.971 86.9601 205.062 87.3224 205.272C87.6846 205.482 87.9719 205.8 88.1437 206.182C88.3155 206.564 88.3632 206.99 88.28 207.4V207.53L82 211.18ZM86.46 205.55C86.0406 205.565 85.633 205.693 85.28 205.92C84.5258 206.413 83.8869 207.063 83.4072 207.826C82.9274 208.589 82.6179 209.447 82.5 210.34L87.84 207.26C87.8576 206.961 87.8 206.663 87.6725 206.392C87.545 206.121 87.3516 205.887 87.11 205.71C86.9232 205.607 86.7135 205.552 86.5 205.55H86.46Z" fill="#004D95"/>
<path d="M93.07 210C93.0389 210 93.0081 209.994 92.9796 209.982C92.951 209.969 92.9252 209.952 92.9037 209.929C92.8822 209.907 92.8655 209.88 92.8545 209.851C92.8436 209.822 92.8386 209.791 92.84 209.76V203C92.8327 202.965 92.8334 202.929 92.8418 202.894C92.8503 202.86 92.8663 202.827 92.8888 202.8C92.9113 202.772 92.9397 202.75 92.9719 202.735C93.0041 202.719 93.0393 202.711 93.075 202.711C93.1106 202.711 93.1458 202.719 93.178 202.735C93.2102 202.75 93.2386 202.772 93.2611 202.8C93.2836 202.827 93.2997 202.86 93.3081 202.894C93.3166 202.929 93.3172 202.965 93.31 203V209.82C93.2964 209.873 93.2652 209.919 93.2216 209.952C93.1779 209.985 93.1245 210.002 93.07 210Z" fill="#004D95"/>
<path d="M92.3799 204.79C92.3506 204.799 92.3192 204.799 92.2899 204.79C92.2603 204.779 92.2333 204.762 92.2105 204.74C92.1878 204.719 92.1697 204.692 92.1575 204.663C92.1454 204.634 92.1393 204.603 92.1397 204.571C92.1401 204.54 92.1469 204.509 92.1599 204.48L93.0099 202.48L93.9499 203.57C93.9719 203.591 93.9895 203.617 94.0015 203.645C94.0135 203.674 94.0196 203.704 94.0196 203.735C94.0196 203.766 94.0135 203.796 94.0015 203.825C93.9895 203.853 93.9719 203.879 93.9499 203.9C93.9276 203.922 93.9011 203.94 93.8719 203.952C93.8427 203.964 93.8114 203.971 93.7799 203.971C93.7483 203.971 93.717 203.964 93.6878 203.952C93.6587 203.94 93.6322 203.922 93.6099 203.9L93.1599 203.38L92.6199 204.64C92.6009 204.687 92.5675 204.727 92.5243 204.754C92.4812 204.781 92.4306 204.794 92.3799 204.79Z" fill="#004D95"/>
<path d="M95.2698 208.75C95.2387 208.751 95.2078 208.746 95.1787 208.735C95.1496 208.725 95.1231 208.708 95.1006 208.686C95.0782 208.665 95.0604 208.639 95.0482 208.61C95.036 208.582 95.0298 208.551 95.0298 208.52V201.7C95.0298 201.636 95.0551 201.575 95.1001 201.53C95.1451 201.485 95.2061 201.46 95.2698 201.46C95.3334 201.46 95.3945 201.485 95.4395 201.53C95.4845 201.575 95.5098 201.636 95.5098 201.7V208.52C95.5098 208.551 95.5036 208.582 95.4914 208.61C95.4792 208.639 95.4614 208.665 95.4389 208.686C95.4165 208.708 95.3899 208.725 95.3609 208.735C95.3318 208.746 95.3008 208.751 95.2698 208.75Z" fill="#004D95"/>
<path d="M94.5801 203.54H94.4801C94.4514 203.528 94.4255 203.51 94.4038 203.488C94.3821 203.466 94.3651 203.44 94.3539 203.411C94.3427 203.382 94.3374 203.351 94.3385 203.32C94.3396 203.289 94.3469 203.258 94.3601 203.23L95.2001 201.23L96.2001 202.31C96.243 202.356 96.2668 202.417 96.2668 202.48C96.2668 202.543 96.243 202.604 96.2001 202.65C96.1787 202.672 96.153 202.69 96.1247 202.702C96.0964 202.714 96.0659 202.72 96.0351 202.72C96.0044 202.72 95.9739 202.714 95.9455 202.702C95.9172 202.69 95.8916 202.672 95.8701 202.65L95.4201 202.13L94.8701 203.39C94.8623 203.42 94.8483 203.448 94.8291 203.472C94.8098 203.496 94.7858 203.515 94.7584 203.529C94.7311 203.544 94.7011 203.552 94.6704 203.554C94.6397 203.555 94.6089 203.551 94.5801 203.54Z" fill="#004D95"/>
<path d="M77.6398 223.14L31.3198 196.4V160.74L77.6398 187.48V223.14Z" fill="#004D95"/>
<path d="M52.73 208.76L56.22 210.78V175.12L52.73 173.1V208.76Z" fill="#EBEBEB"/>
<path d="M104.12 178.88L97.4698 182.72C96.8045 183.096 96.2358 183.621 95.8088 184.255C95.3818 184.888 95.1083 185.612 95.0098 186.37C95.0098 187.6 96.1098 187.96 97.4698 187.17L104.12 183.34C104.784 182.96 105.352 182.432 105.781 181.797C106.209 181.163 106.486 180.438 106.59 179.68C106.59 178.45 105.48 178.09 104.12 178.88Z" fill="#004D95"/>
<path d="M56.22 175.12L102.54 148.38L99.05 146.36L52.73 173.1L56.22 175.12Z" fill="white"/>
<path d="M99.05 175.12L52.73 148.38L56.22 146.36L102.54 173.1L99.05 175.12Z" fill="white"/>
<path d="M99.0498 178.7V175.12L102.54 173.1V176.68L99.0498 178.7Z" fill="#C8EDCA"/>
<path d="M142.72 292.1V276.46C141.975 270.711 139.539 265.312 135.72 260.95C129.54 254.26 124 256.53 122.2 259.71C120.4 262.89 124.5 268.91 127.12 272.31C130.27 276.39 142.7 295.31 142.7 303.84L142.72 292.1Z" fill="#37474F"/>
<path d="M142.72 289.63C142.629 289.629 142.542 289.597 142.472 289.538C142.403 289.48 142.356 289.399 142.34 289.31C139.52 272.26 126.54 260.56 126.41 260.44C126.34 260.367 126.301 260.271 126.301 260.17C126.301 260.069 126.34 259.973 126.41 259.9C126.445 259.864 126.487 259.836 126.534 259.817C126.58 259.797 126.63 259.787 126.68 259.787C126.73 259.787 126.78 259.797 126.826 259.817C126.872 259.836 126.915 259.864 126.95 259.9C127.09 260.01 140.26 271.9 143.13 289.21C143.144 289.311 143.119 289.413 143.059 289.495C142.999 289.577 142.91 289.633 142.81 289.65L142.72 289.63Z" fill="white"/>
<path d="M142.72 292.1C142.72 292.1 143.34 290.22 140.57 289.74C137.8 289.26 136.74 286.96 136.49 283.1C136.24 279.24 135.06 276.47 131.59 275.9C128.12 275.33 125.33 277.08 123.08 275.34C120.83 273.6 115 269.41 110.14 271.34C105.28 273.27 106.88 277.4 109.41 280.08C111.94 282.76 112.66 283.68 110.73 288.08C108.8 292.48 110.2 296.54 114.67 297.56C119.14 298.58 121.67 298.06 121.67 302.95C121.67 307.84 122.41 310.03 124.86 311.95C127.31 313.87 135 313.01 138.2 313.75C139.161 313.998 140.058 314.447 140.832 315.067C141.606 315.688 142.239 316.466 142.69 317.35L142.72 292.1Z" fill="#455A64"/>
<path d="M142.72 312.27C142.64 312.27 142.563 312.245 142.498 312.198C142.433 312.151 142.385 312.086 142.36 312.01C134.23 287.89 115.84 278.14 115.65 278.01C115.565 277.959 115.504 277.877 115.477 277.782C115.451 277.686 115.461 277.584 115.507 277.497C115.553 277.409 115.63 277.342 115.724 277.309C115.817 277.276 115.919 277.28 116.01 277.32C116.19 277.42 134.85 287.32 143.08 311.73C143.097 311.777 143.104 311.827 143.101 311.878C143.098 311.928 143.085 311.977 143.063 312.022C143.04 312.066 143.009 312.106 142.971 312.139C142.932 312.171 142.888 312.195 142.84 312.21C142.806 312.241 142.765 312.261 142.72 312.27Z" fill="white"/>
<path d="M131.06 291.24H131C125.69 290.03 117.2 290.69 117.11 290.69C117.06 290.694 117.01 290.688 116.962 290.673C116.914 290.657 116.87 290.633 116.832 290.6C116.794 290.568 116.763 290.528 116.74 290.483C116.717 290.439 116.704 290.39 116.7 290.34C116.694 290.29 116.699 290.239 116.714 290.191C116.729 290.142 116.754 290.098 116.786 290.059C116.819 290.021 116.859 289.99 116.905 289.967C116.95 289.945 117 289.932 117.05 289.93C117.41 289.93 125.75 289.26 131.17 290.5C131.261 290.521 131.341 290.575 131.395 290.652C131.448 290.729 131.472 290.822 131.461 290.915C131.45 291.008 131.405 291.094 131.334 291.155C131.264 291.217 131.174 291.251 131.08 291.25L131.06 291.24Z" fill="white"/>
<path d="M135.39 302.84C132.96 302.84 130.39 302.68 130.23 302.67C130.128 302.662 130.033 302.615 129.966 302.538C129.899 302.462 129.864 302.362 129.87 302.26C129.872 302.209 129.885 302.159 129.907 302.114C129.929 302.068 129.96 302.027 129.999 301.993C130.037 301.96 130.081 301.934 130.13 301.918C130.178 301.902 130.229 301.896 130.28 301.9C133.043 302.094 135.816 302.094 138.58 301.9C138.679 301.886 138.78 301.911 138.861 301.971C138.941 302.031 138.995 302.121 139.01 302.22C139.018 302.27 139.017 302.321 139.005 302.371C138.994 302.42 138.972 302.466 138.942 302.507C138.913 302.548 138.875 302.583 138.832 302.609C138.788 302.635 138.74 302.653 138.69 302.66C137.595 302.797 136.493 302.857 135.39 302.84Z" fill="white"/>
<path d="M128.57 288.41C128.468 288.402 128.374 288.355 128.306 288.278C128.239 288.202 128.205 288.102 128.21 288C128.393 285.239 128.969 282.518 129.92 279.92C129.958 279.828 130.03 279.754 130.122 279.715C130.214 279.675 130.317 279.674 130.41 279.71C130.457 279.727 130.501 279.753 130.538 279.787C130.575 279.821 130.605 279.862 130.625 279.908C130.646 279.954 130.657 280.003 130.658 280.053C130.659 280.104 130.649 280.154 130.63 280.2C129.719 282.728 129.161 285.37 128.97 288.05C128.967 288.1 128.955 288.149 128.934 288.194C128.912 288.239 128.882 288.28 128.845 288.313C128.808 288.346 128.764 288.372 128.717 288.389C128.67 288.406 128.62 288.413 128.57 288.41Z" fill="white"/>
<path d="M142.6 137.36V319C142.6 320.66 143.76 321.33 145.2 320.5L363.42 194.5C364.173 194.005 364.799 193.34 365.247 192.558C365.695 191.776 365.953 190.9 366 190V8.38002C366 6.72002 364.84 6.05002 363.41 6.88002L145.19 132.88C144.437 133.372 143.811 134.033 143.361 134.812C142.911 135.59 142.65 136.463 142.6 137.36Z" fill="#4CAF4F"/>
<path d="M363.42 6.88002L145.2 132.88C144.443 133.373 143.813 134.037 143.361 134.819C142.909 135.601 142.648 136.478 142.6 137.38V148.74L366 19.45V8.38002C366 6.72002 364.85 6.05002 363.42 6.88002Z" fill="#263238"/>
<path d="M335.549 27.05C334.805 27.5348 334.186 28.1889 333.743 28.9589C333.3 29.7288 333.045 30.5927 333 31.48C333 33.11 334.14 33.77 335.56 32.96C336.304 32.4717 336.923 31.8156 337.368 31.0445C337.812 30.2734 338.07 29.4087 338.12 28.52C338.11 26.89 336.999 26.23 335.549 27.05Z" fill="white"/>
<path d="M345.7 21.18C344.956 21.6662 344.336 22.3204 343.892 23.0899C343.447 23.8594 343.189 24.7227 343.14 25.6101C343.14 27.2501 344.29 27.91 345.7 27.09C346.446 26.6063 347.067 25.9527 347.512 25.1827C347.957 24.4126 348.213 23.5482 348.26 22.66C348.26 21 347.12 20.37 345.7 21.18Z" fill="white"/>
<path d="M355.86 15.32C355.116 15.8061 354.496 16.4603 354.052 17.2298C353.607 17.9993 353.349 18.8626 353.3 19.75C353.3 21.38 354.45 22.05 355.86 21.23C356.604 20.7439 357.223 20.0897 357.668 19.3201C358.113 18.5506 358.37 17.6873 358.42 16.8C358.42 15.16 357.27 14.5 355.86 15.32Z" fill="white"/>
<path d="M212.69 132.58V186.58L165.94 213.58V159.58L212.69 132.58ZM213.69 130.85L164.94 159V215.29L213.69 187.14V130.85Z" fill="white"/>
<path d="M229.44 178.62V121.18L279.18 92.4601V149.9L229.44 178.62ZM230.44 121.76V176.89L278.18 149.32V94.1901L230.44 121.76Z" fill="white"/>
<path d="M260.6 120.81L263.22 115.15C260.321 114.741 257.369 115.341 254.86 116.85V122C256.593 120.991 258.608 120.573 260.6 120.81Z" fill="#4CAF4F"/>
<path d="M265 124.64L269.24 120.64C268.832 119.434 268.154 118.337 267.258 117.432C266.362 116.528 265.272 115.84 264.07 115.42L261.46 121.08C262.272 121.383 263.009 121.857 263.62 122.472C264.231 123.087 264.702 123.826 265 124.64Z" fill="#4CAF4F"/>
<path d="M248 150.27L245.39 155.92C248.284 156.348 251.237 155.754 253.74 154.24V149.1C252.009 150.113 249.99 150.525 248 150.27Z" fill="#4CAF4F"/>
<path d="M261.5 141.73L264.11 144.37C266.431 140.946 268.177 137.167 269.28 133.18L265 134C264.244 136.744 263.063 139.352 261.5 141.73Z" fill="#4CAF4F"/>
<path d="M254.86 148.46V153.6C258.124 151.485 260.957 148.77 263.21 145.6L260.6 143C259.029 145.149 257.085 146.998 254.86 148.46Z" fill="#4CAF4F"/>
<path d="M269.62 121.63L265.39 125.63C265.67 126.687 265.808 127.777 265.8 128.87C265.79 130.121 265.652 131.367 265.39 132.59L269.62 131.74C270.019 129.957 270.227 128.137 270.24 126.31C270.253 124.729 270.045 123.153 269.62 121.63Z" fill="#4CAF4F"/>
<g opacity="0.2">
<path d="M260.6 120.81L263.22 115.15C260.321 114.741 257.369 115.341 254.86 116.85V122C256.594 120.991 258.609 120.573 260.6 120.81Z" fill="black"/>
<path d="M265 124.64L269.24 120.64C268.832 119.434 268.154 118.337 267.258 117.432C266.362 116.528 265.272 115.84 264.07 115.42L261.46 121.08C262.272 121.383 263.009 121.857 263.62 122.472C264.231 123.087 264.702 123.826 265 124.64Z" fill="black"/>
<path d="M248 150.27L245.39 155.92C248.284 156.348 251.237 155.754 253.74 154.24V149.1C252.009 150.114 249.99 150.525 248 150.27Z" fill="black"/>
<path d="M261.5 141.73L264.11 144.37C266.431 140.946 268.177 137.167 269.28 133.18L265 134C264.244 136.744 263.063 139.352 261.5 141.73Z" fill="black"/>
<path d="M254.86 148.46V153.6C258.124 151.485 260.958 148.77 263.21 145.6L260.6 143C259.029 145.149 257.085 146.998 254.86 148.46Z" fill="black"/>
<path d="M269.62 121.63L265.39 125.63C265.67 126.687 265.808 127.777 265.8 128.87C265.79 130.121 265.652 131.367 265.39 132.59L269.62 131.74C270.019 129.957 270.227 128.137 270.24 126.31C270.253 124.729 270.045 123.153 269.62 121.63Z" fill="black"/>
</g>
<path d="M253.75 122.62V117.48C250.484 119.592 247.65 122.307 245.4 125.48L248.01 128.12C249.574 125.954 251.519 124.091 253.75 122.62Z" fill="white"/>
<path d="M247.12 129.35L244.51 126.71C242.185 130.128 240.438 133.905 239.34 137.89L243.57 137.04C244.342 134.306 245.54 131.711 247.12 129.35Z" fill="white"/>
<path d="M242.81 142.17C242.824 140.919 242.965 139.673 243.23 138.45L239 139.31C238.601 141.09 238.393 142.907 238.38 144.73C238.364 146.325 238.573 147.914 239 149.45L243.23 145.45C242.944 144.38 242.802 143.277 242.81 142.17Z" fill="white"/>
<path d="M243.57 146.44L239.34 150.44C239.746 151.646 240.424 152.742 241.32 153.645C242.216 154.548 243.307 155.234 244.51 155.65L247.12 150C246.306 149.699 245.567 149.224 244.954 148.61C244.341 147.995 243.869 147.255 243.57 146.44Z" fill="white"/>
<path d="M244.8 141C244.8 134.93 249.06 127.56 254.31 124.53C259.56 121.5 263.82 123.95 263.82 130.02C263.82 136.09 259.56 143.46 254.31 146.49C249.06 149.52 244.8 147.09 244.8 141Z" fill="#4CAF4F"/>
<path opacity="0.2" d="M244.8 141C244.8 134.93 249.06 127.56 254.31 124.53C259.56 121.5 263.82 123.95 263.82 130.02C263.82 136.09 259.56 143.46 254.31 146.49C249.06 149.52 244.8 147.09 244.8 141Z" fill="black"/>
<path d="M253.37 132.41C253.39 132.8 253.39 133.19 253.37 133.58C253.352 133.902 253.298 134.22 253.21 134.53C253.125 134.854 252.993 135.164 252.82 135.45C252.449 136.091 251.914 136.623 251.27 136.99C250.992 137.165 250.683 137.284 250.36 137.34C250.141 137.384 249.915 137.348 249.72 137.24C249.544 137.128 249.408 136.964 249.33 136.77C249.234 136.528 249.18 136.271 249.17 136.01C249.17 135.81 249.17 135.62 249.17 135.44C249.17 135.26 249.17 135.06 249.17 134.83C249.186 134.492 249.24 134.156 249.33 133.83C249.422 133.512 249.553 133.206 249.72 132.92C249.896 132.611 250.111 132.325 250.36 132.07C250.631 131.8 250.937 131.568 251.27 131.38C251.548 131.205 251.857 131.083 252.18 131.02C252.4 130.984 252.625 131.023 252.82 131.13C252.996 131.242 253.132 131.407 253.21 131.6C253.306 131.86 253.36 132.133 253.37 132.41ZM256.71 128.66C256.761 128.543 256.824 128.433 256.9 128.33C256.978 128.23 257.077 128.148 257.19 128.09L258.29 127.46C258.321 127.433 258.358 127.414 258.398 127.405C258.439 127.396 258.48 127.398 258.52 127.41C258.58 127.41 258.61 127.49 258.61 127.58C258.613 127.607 258.613 127.633 258.61 127.66C258.614 127.7 258.614 127.74 258.61 127.78L252 141.63C251.943 141.743 251.876 141.85 251.8 141.95C251.723 142.05 251.628 142.135 251.52 142.2L250.42 142.83C250.384 142.847 250.345 142.856 250.305 142.856C250.265 142.856 250.226 142.847 250.19 142.83C250.13 142.83 250.1 142.75 250.1 142.66C250.1 142.57 250.1 142.61 250.1 142.57C250.1 142.53 250.1 142.5 250.1 142.46L256.71 128.66ZM250.71 135.03C250.706 135.216 250.755 135.4 250.85 135.56C250.92 135.65 251.06 135.63 251.26 135.56C251.437 135.464 251.577 135.313 251.66 135.13C251.749 134.91 251.8 134.677 251.81 134.44C251.829 134.107 251.829 133.773 251.81 133.44C251.812 133.256 251.76 133.075 251.66 132.92C251.59 132.83 251.45 132.84 251.26 132.92C251.078 133.012 250.933 133.164 250.85 133.35C250.765 133.571 250.717 133.804 250.71 134.04C250.686 134.36 250.689 134.681 250.72 135L250.71 135.03ZM259.56 134.23C259.58 134.623 259.58 135.017 259.56 135.41C259.539 135.727 259.489 136.042 259.41 136.35C259.233 137.013 258.889 137.619 258.41 138.11C258.142 138.386 257.835 138.622 257.5 138.81C257.222 138.985 256.913 139.104 256.59 139.16C256.372 139.208 256.143 139.173 255.95 139.06C255.774 138.948 255.638 138.784 255.56 138.59C255.464 138.348 255.41 138.091 255.4 137.83C255.4 137.63 255.4 137.44 255.4 137.27C255.4 137.1 255.4 136.88 255.4 136.65C255.419 136.332 255.473 136.017 255.56 135.71C255.652 135.389 255.783 135.08 255.95 134.79C256.124 134.482 256.339 134.2 256.59 133.95C256.858 133.674 257.164 133.438 257.5 133.25C257.777 133.075 258.087 132.956 258.41 132.9C258.628 132.852 258.857 132.887 259.05 133C259.226 133.112 259.362 133.277 259.44 133.47C259.526 133.714 259.569 133.971 259.57 134.23H259.56ZM256.91 136.86C256.911 137.043 256.959 137.222 257.05 137.38C257.13 137.47 257.26 137.46 257.46 137.38C257.639 137.285 257.783 137.134 257.87 136.95C257.95 136.728 257.998 136.496 258.01 136.26C258.029 135.927 258.029 135.593 258.01 135.26C258.009 135.077 257.961 134.898 257.87 134.74C257.79 134.65 257.66 134.66 257.46 134.74C257.28 134.835 257.136 134.986 257.05 135.17C256.969 135.392 256.922 135.624 256.91 135.86C256.884 136.193 256.888 136.528 256.92 136.86H256.91Z" fill="white"/>
<path d="M294.43 141.1V83.6501L344.17 54.9301V112.38L294.43 141.1ZM295.43 84.2301V139.36L343.17 111.8V56.6701L295.43 84.2301Z" fill="white"/>
<path d="M318.75 85.09V80C315.48 82.1111 312.643 84.8263 310.39 88L313.01 90.65C314.568 88.4618 316.513 86.5774 318.75 85.09Z" fill="white"/>
<path d="M312.11 91.8301L309.5 89.1901C307.173 92.6067 305.426 96.3842 304.33 100.37L308.56 99.5101C309.339 96.7818 310.536 94.1909 312.11 91.8301Z" fill="white"/>
<path d="M325.59 83.29L328.21 77.62C325.311 77.2108 322.359 77.811 319.85 79.32V84.45C321.584 83.4422 323.601 83.0345 325.59 83.29Z" fill="#4CAF4F"/>
<path d="M330 87.11L334.23 83.11C333.822 81.9052 333.144 80.8094 332.248 79.9065C331.352 79.0036 330.262 78.3173 329.06 77.9L326.45 83.55C327.264 83.8513 328.003 84.3256 328.616 84.9403C329.229 85.5549 329.701 86.2952 330 87.11Z" fill="#4CAF4F"/>
<path d="M313 112.74L310.39 118.4C312.79 118.89 315.66 118.4 318.75 116.71V111.58C317.014 112.59 314.992 112.998 313 112.74Z" fill="#4CAF4F"/>
<path d="M334.61 84.1001L330.38 88.1001C330.663 89.16 330.805 90.2529 330.8 91.3501C330.785 92.6011 330.645 93.8474 330.38 95.0701L334.61 94.2201C335.008 92.4372 335.216 90.617 335.23 88.7901C335.243 87.2055 335.034 85.6269 334.61 84.1001Z" fill="#4CAF4F"/>
<path d="M326.49 104.2L329.1 106.84C331.425 103.422 333.172 99.6452 334.27 95.66L330.04 96.52C329.261 99.2483 328.063 101.839 326.49 104.2Z" fill="#4CAF4F"/>
<path d="M307.8 104.65C307.814 103.399 307.955 102.153 308.22 100.93L303.99 101.78C303.592 103.563 303.384 105.383 303.37 107.21C303.354 108.801 303.563 110.387 303.99 111.92L308.22 107.92C307.935 106.854 307.794 105.754 307.8 104.65Z" fill="#4CAF4F"/>
<path d="M308.56 108.91L304.33 112.91C304.738 114.115 305.416 115.211 306.312 116.114C307.208 117.016 308.298 117.703 309.5 118.12L312.11 112.47C311.296 112.169 310.557 111.694 309.944 111.08C309.331 110.465 308.859 109.725 308.56 108.91Z" fill="#4CAF4F"/>
<path d="M319.85 110.94V116.07C323.115 113.974 325.952 111.276 328.21 108.12L325.6 105.47C324.028 107.625 322.08 109.478 319.85 110.94Z" fill="#4CAF4F"/>
<g opacity="0.2">
<path d="M325.59 83.29L328.21 77.62C325.311 77.2108 322.359 77.811 319.85 79.32V84.45C321.584 83.4422 323.601 83.0345 325.59 83.29Z" fill="black"/>
<path d="M330 87.11L334.23 83.11C333.822 81.9052 333.144 80.8094 332.248 79.9065C331.352 79.0036 330.262 78.3173 329.06 77.9L326.45 83.55C327.264 83.8513 328.003 84.3256 328.616 84.9403C329.229 85.5549 329.701 86.2952 330 87.11Z" fill="black"/>
<path d="M313 112.74L310.39 118.4C312.79 118.89 315.66 118.4 318.75 116.71V111.58C317.014 112.59 314.992 112.998 313 112.74Z" fill="black"/>
<path d="M334.61 84.1001L330.38 88.1001C330.663 89.16 330.805 90.2529 330.8 91.3501C330.785 92.6011 330.645 93.8474 330.38 95.0701L334.61 94.2201C335.008 92.4372 335.216 90.617 335.23 88.7901C335.243 87.2055 335.034 85.6269 334.61 84.1001Z" fill="black"/>
<path d="M326.49 104.2L329.1 106.84C331.425 103.422 333.172 99.6452 334.27 95.66L330.04 96.52C329.262 99.2483 328.064 101.839 326.49 104.2Z" fill="black"/>
<path d="M307.8 104.65C307.814 103.399 307.955 102.153 308.22 100.93L303.99 101.78C303.592 103.563 303.384 105.383 303.37 107.21C303.354 108.801 303.563 110.387 303.99 111.92L308.22 107.92C307.935 106.854 307.794 105.754 307.8 104.65Z" fill="black"/>
<path d="M308.56 108.91L304.33 112.91C304.738 114.115 305.416 115.211 306.312 116.114C307.208 117.016 308.298 117.703 309.5 118.12L312.11 112.47C311.296 112.169 310.557 111.694 309.944 111.08C309.331 110.465 308.859 109.725 308.56 108.91Z" fill="black"/>
<path d="M319.85 110.94V116.07C323.115 113.974 325.952 111.276 328.21 108.12L325.6 105.47C324.028 107.625 322.08 109.478 319.85 110.94Z" fill="black"/>
</g>
<path d="M309.79 103.5C309.79 97.4401 314.05 90.0701 319.3 87.0301C324.55 83.9901 328.81 86.4601 328.81 92.5201C328.81 98.5801 324.55 106 319.3 109C314.05 112 309.79 109.57 309.79 103.5Z" fill="#4CAF4F"/>
<path opacity="0.2" d="M309.79 103.5C309.79 97.4401 314.05 90.0701 319.3 87.0301C324.55 83.9901 328.81 86.4601 328.81 92.5201C328.81 98.5801 324.55 106 319.3 109C314.05 112 309.79 109.57 309.79 103.5Z" fill="black"/>
<path d="M318.36 94.8901C318.38 95.2798 318.38 95.6703 318.36 96.0601C318.339 96.3807 318.289 96.6987 318.21 97.0101C318.116 97.3276 317.985 97.633 317.82 97.9201C317.639 98.229 317.421 98.5145 317.17 98.7701C316.899 99.0398 316.593 99.2719 316.26 99.4601C315.981 99.6335 315.673 99.7554 315.35 99.8201C315.132 99.8587 314.906 99.8235 314.71 99.7201C314.534 99.6079 314.398 99.4436 314.32 99.2501C314.224 99.004 314.17 98.7438 314.16 98.4801C314.15 98.2935 314.15 98.1066 314.16 97.9201C314.16 97.7401 314.16 97.5401 314.16 97.3101C314.179 96.9886 314.233 96.6701 314.32 96.3601C314.414 96.0393 314.545 95.7305 314.71 95.4401C314.884 95.1323 315.1 94.8498 315.35 94.6001C315.621 94.3304 315.927 94.0983 316.26 93.9101C316.539 93.7366 316.848 93.6147 317.17 93.5501C317.389 93.5115 317.614 93.5466 317.81 93.6501C317.986 93.7622 318.122 93.9266 318.2 94.1201C318.296 94.3661 318.35 94.6263 318.36 94.8901ZM321.7 91.1401C321.755 91.0252 321.818 90.9149 321.89 90.8101C321.971 90.7124 322.069 90.631 322.18 90.5701L323.28 89.9301C323.347 89.8838 323.43 89.8658 323.51 89.8801C323.57 89.8801 323.6 89.9601 323.6 90.0601C323.6 90.1601 323.6 90.0601 323.6 90.1401C323.604 90.18 323.604 90.2202 323.6 90.2601L317 104.1C316.946 104.215 316.882 104.325 316.81 104.43C316.732 104.53 316.633 104.612 316.52 104.67L315.42 105.31C315.387 105.333 315.35 105.35 315.31 105.359C315.271 105.367 315.23 105.368 315.19 105.36C315.13 105.36 315.1 105.28 315.1 105.18C315.097 105.153 315.097 105.127 315.1 105.1C315.096 105.06 315.096 105.02 315.1 104.98L321.7 91.1401ZM315.7 97.5101C315.698 97.6929 315.747 97.8728 315.84 98.0301C315.92 98.1201 316.05 98.1101 316.25 98.0301C316.429 97.9289 316.572 97.7753 316.66 97.5901C316.741 97.3717 316.788 97.1425 316.8 96.9101C316.819 96.577 316.819 96.2431 316.8 95.9101C316.802 95.7272 316.753 95.5473 316.66 95.3901C316.58 95.3001 316.45 95.3101 316.25 95.3901C316.072 95.4912 315.928 95.6448 315.84 95.8301C315.76 96.0484 315.712 96.2777 315.7 96.5101C315.684 96.8433 315.688 97.1772 315.71 97.5101H315.7ZM324.55 96.7101C324.58 97.0995 324.58 97.4906 324.55 97.8801C324.533 98.2176 324.483 98.5526 324.4 98.8801C324.304 99.2002 324.174 99.5087 324.01 99.8001C323.832 100.108 323.613 100.39 323.36 100.64C323.087 100.91 322.781 101.145 322.45 101.34C322.171 101.513 321.863 101.631 321.54 101.69C321.322 101.734 321.095 101.698 320.9 101.59C320.724 101.478 320.588 101.314 320.51 101.12C320.42 100.876 320.366 100.62 320.35 100.36C320.35 100.16 320.35 99.9701 320.35 99.7901C320.35 99.6101 320.35 99.4101 320.35 99.1801C320.374 98.8591 320.428 98.5411 320.51 98.2301C320.604 97.9093 320.735 97.6005 320.9 97.3101C321.079 97.0056 321.294 96.7237 321.54 96.4701C321.813 96.2027 322.119 95.9708 322.45 95.7801C322.729 95.6066 323.038 95.4847 323.36 95.4201C323.579 95.3815 323.804 95.4166 324 95.5201C324.176 95.6322 324.312 95.7966 324.39 95.9901C324.483 96.22 324.54 96.4628 324.56 96.7101H324.55ZM321.9 99.3301C321.898 99.5129 321.947 99.6928 322.04 99.8501C322.12 99.9401 322.26 99.9301 322.45 99.8501C322.633 99.7541 322.777 99.599 322.86 99.4101C322.946 99.1933 322.993 98.9632 323 98.7301C323.029 98.3973 323.029 98.0628 323 97.7301C323.006 97.5467 322.957 97.3658 322.86 97.2101C322.78 97.1201 322.65 97.1301 322.45 97.2101C322.272 97.3112 322.128 97.4648 322.04 97.6501C321.961 97.8687 321.913 98.0978 321.9 98.3301C321.884 98.6633 321.888 98.9972 321.91 99.3301H321.9Z" fill="white"/>
<path d="M164.94 229.37V285.66L213.69 257.51V201.23L164.94 229.37Z" fill="#4CAF4F"/>
<path opacity="0.7" d="M164.94 229.37V285.66L213.69 257.51V201.23L164.94 229.37Z" fill="white"/>
<path d="M164.94 244.25C166.59 244.89 168.72 244.63 171.04 243.25C176.29 240.25 180.55 232.84 180.55 226.78C180.677 224.809 180.019 222.868 178.72 221.38L164.94 229.33V244.25Z" fill="#4CAF4F"/>
<path d="M186.41 245.64C186.89 244.06 187.84 243.99 188.53 245.5L195.41 260.5L205.66 221.69C206.09 220.09 206.8 220.08 207.24 221.69L213.69 244.6V257.52L176.22 279.16L186.41 245.64Z" fill="#4CAF4F"/>
<g opacity="0.2">
<path d="M164.94 244.25C166.59 244.89 168.72 244.63 171.04 243.25C176.29 240.25 180.55 232.84 180.55 226.78C180.677 224.809 180.019 222.868 178.72 221.38L164.94 229.33V244.25Z" fill="black"/>
<path d="M186.41 245.64C186.89 244.06 187.84 243.99 188.53 245.5L195.41 260.5L205.66 221.69C206.09 220.09 206.8 220.08 207.24 221.69L213.69 244.6V257.52L176.22 279.16L186.41 245.64Z" fill="black"/>
</g>
<path d="M212.69 203V257L165.94 284V230L212.69 203ZM213.69 201.27L164.94 229.41V285.7L213.69 257.55V201.23V201.27Z" fill="#4CAF4F"/>
<path opacity="0.7" d="M212.69 203V257L165.94 284V230L212.69 203ZM213.69 201.27L164.94 229.41V285.7L213.69 257.55V201.23V201.27Z" fill="white"/>
<path d="M229.94 191.85V248.13L278.68 219.99V163.71L229.94 191.85Z" fill="#4CAF4F"/>
<path opacity="0.7" d="M229.94 191.85V248.13L278.68 219.99V163.71L229.94 191.85Z" fill="white"/>
<path d="M229.94 206.73C231.59 207.37 233.71 207.1 236.03 205.73C241.28 202.73 245.54 195.32 245.54 189.25C245.665 187.282 245.007 185.345 243.71 183.86L229.94 191.81V206.73Z" fill="#4CAF4F"/>
<path d="M251.4 208.12C251.89 206.53 252.84 206.47 253.53 207.97L260.4 222.97L270.66 184.16C271.08 182.56 271.79 182.55 272.24 184.16L278.68 207.06V220L241.21 241.63L251.4 208.12Z" fill="#4CAF4F"/>
<g opacity="0.2">
<path d="M229.94 206.73C231.59 207.37 233.71 207.1 236.03 205.73C241.28 202.73 245.54 195.32 245.54 189.25C245.665 187.282 245.007 185.345 243.71 183.86L229.94 191.81V206.73Z" fill="black"/>
<path d="M251.4 208.12C251.89 206.53 252.84 206.47 253.53 207.97L260.4 222.97L270.66 184.16C271.08 182.56 271.79 182.55 272.24 184.16L278.68 207.06V220L241.21 241.63L251.4 208.12Z" fill="black"/>
</g>
<path d="M277.68 165.44V219.44L230.94 246.44V192.44L277.68 165.44ZM278.68 163.7L229.94 191.85V248.13L278.68 220V163.7Z" fill="#4CAF4F"/>
<path opacity="0.7" d="M277.68 165.44V219.44L230.94 246.44V192.44L277.68 165.44ZM278.68 163.7L229.94 191.85V248.13L278.68 220V163.7Z" fill="white"/>
<path d="M294.93 154.32V210.61L343.67 182.47V126.18L294.93 154.32Z" fill="#4CAF4F"/>
<path opacity="0.7" d="M294.93 154.32V210.61L343.67 182.47V126.18L294.93 154.32Z" fill="white"/>
<path d="M294.93 169.21C296.58 169.85 298.7 169.58 301.02 168.21C306.27 165.21 310.53 157.81 310.53 151.74C310.654 149.769 309.997 147.829 308.7 146.34L294.93 154.29V169.21Z" fill="#4CAF4F"/>
<path d="M316.39 170.59C316.88 169.01 317.83 168.95 318.52 170.45L325.39 185.45L335.65 146.63C336.07 145.03 336.78 145.03 337.23 146.63L343.67 169.54V182.47L306.2 204.1L316.39 170.59Z" fill="#4CAF4F"/>
<g opacity="0.2">
<path d="M294.93 169.21C296.58 169.85 298.7 169.58 301.02 168.21C306.27 165.21 310.53 157.81 310.53 151.74C310.654 149.769 309.997 147.829 308.7 146.34L294.93 154.29V169.21Z" fill="black"/>
<path d="M316.39 170.59C316.88 169.01 317.83 168.95 318.52 170.45L325.39 185.45L335.65 146.63C336.07 145.03 336.78 145.03 337.23 146.63L343.67 169.54V182.47L306.2 204.1L316.39 170.59Z" fill="black"/>
</g>
<path d="M342.67 127.91V181.91L295.93 208.91V154.91L342.67 127.91ZM343.67 126.18L294.93 154.32V210.61L343.67 182.47V126.18Z" fill="#4CAF4F"/>
<path opacity="0.7" d="M342.67 127.91V181.91L295.93 208.91V154.91L342.67 127.91ZM343.67 126.18L294.93 154.32V210.61L343.67 182.47V126.18Z" fill="white"/>
<path d="M326.371 183L340.313 188.148L335.24 190.417L343.384 197.635L342.086 199.281L333.686 191.999L332.001 197.145L326.371 183Z" fill="#263238"/>
<path d="M412.16 110.07L380.8 128.17C380.043 128.663 379.413 129.327 378.962 130.109C378.51 130.891 378.249 131.768 378.2 132.67V158L370.2 166.26C369.05 167.45 369.45 168.26 371.09 168.06L378.16 167.23V178.29C378.16 179.94 379.32 180.62 380.76 179.79L412.12 161.68C412.878 161.188 413.508 160.524 413.96 159.742C414.412 158.96 414.672 158.082 414.72 157.18V111.57C414.76 109.91 413.6 109.24 412.16 110.07Z" fill="#37474F"/>
<path d="M388.65 137.73L387.33 137.63C385.59 137.49 383.52 136.8 383.52 134.31C383.57 133.393 383.836 132.501 384.294 131.705C384.753 130.91 385.392 130.233 386.16 129.73C387.3 129.08 388.27 129.35 388.64 130.29C389.017 128.883 389.9 127.666 391.12 126.87C392.58 126.03 393.76 126.71 393.76 128.4C393.76 130.84 391.7 133.93 389.97 136.09L388.65 137.73Z" fill="white"/>
<path d="M401.11 123.45L408.11 119.45C409.54 118.62 410.71 119 410.71 120.3C410.602 121.097 410.311 121.858 409.86 122.525C409.409 123.191 408.81 123.744 408.11 124.14L401.11 128.14C399.67 128.97 398.51 128.59 398.51 127.29C398.616 126.492 398.906 125.73 399.358 125.063C399.809 124.397 400.409 123.845 401.11 123.45Z" fill="white"/>
<path d="M386.11 145.87L393.11 141.87C394.55 141.04 395.71 141.42 395.71 142.71C395.606 143.51 395.316 144.274 394.865 144.942C394.414 145.61 393.813 146.164 393.11 146.56L386.11 150.56C384.68 151.39 383.52 151.01 383.52 149.72C383.625 148.922 383.913 148.159 384.363 147.491C384.812 146.823 385.41 146.268 386.11 145.87Z" fill="white"/>
<path d="M386.11 155.65L408.11 142.96C409.54 142.13 410.71 142.51 410.71 143.8C410.603 144.599 410.313 145.362 409.862 146.03C409.411 146.698 408.811 147.253 408.11 147.65L386.11 160.34C384.68 161.17 383.52 160.79 383.52 159.5C383.625 158.702 383.913 157.939 384.363 157.271C384.812 156.603 385.41 156.048 386.11 155.65Z" fill="white"/>
<path d="M386.11 164.78L408.11 152.09C409.54 151.26 410.71 151.64 410.71 152.94C410.602 153.737 410.311 154.498 409.86 155.165C409.409 155.831 408.81 156.384 408.11 156.78L386.11 169.47C384.68 170.3 383.52 169.92 383.52 168.63C383.625 167.832 383.913 167.069 384.363 166.401C384.812 165.733 385.41 165.178 386.11 164.78Z" fill="white"/>
<path d="M57.2998 347.78L106.04 375.92L154.79 347.78L106.04 319.63L57.2998 347.78Z" fill="#4CAF4F"/>
<path opacity="0.7" d="M57.2998 347.78L106.04 375.92L154.79 347.78L106.04 319.63L57.2998 347.78Z" fill="white"/>
<path d="M70.1898 355.22C73.0922 355.123 75.9329 354.357 78.4898 352.98C83.7398 349.98 83.7398 344.98 78.4898 341.98C76.2008 340.733 73.6702 339.993 71.0698 339.81L57.2998 347.78L70.1898 355.22Z" fill="#4CAF4F"/>
<path d="M103.59 349.72C102.94 348.78 104.31 348.48 106.65 349.03L130 354.55L111.77 332.18C111.02 331.26 112.07 331.05 114.13 331.72L143.64 341.32L154.83 347.78L117.36 369.41L103.59 349.72Z" fill="#4CAF4F"/>
<g opacity="0.2">
<path d="M70.1898 355.22C73.0922 355.123 75.9329 354.357 78.4898 352.98C83.7398 349.98 83.7398 344.98 78.4898 341.98C76.2008 340.733 73.6702 339.993 71.0698 339.81L57.2998 347.78L70.1898 355.22Z" fill="black"/>
<path d="M103.59 349.72C102.94 348.78 104.31 348.48 106.65 349.03L130 354.55L111.77 332.18C111.02 331.26 112.07 331.05 114.13 331.72L143.64 341.32L154.83 347.78L117.36 369.41L103.59 349.72Z" fill="black"/>
</g>
<path d="M106 320.79L152.75 347.79L106 374.79L59.2598 347.79L106 320.79ZM106 319.64L57.2998 347.78L106 375.92L154.75 347.78L106 319.64Z" fill="#4CAF4F"/>
<path opacity="0.7" d="M106 320.79L152.75 347.79L106 374.79L59.2598 347.79L106 320.79ZM106 319.64L57.2998 347.78L106 375.92L154.75 347.78L106 319.64Z" fill="white"/>
<path d="M57.2998 347.78V352.47L106.04 380.61V375.92L57.2998 347.78Z" fill="#4CAF4F"/>
<path opacity="0.6" d="M57.2998 347.78V352.47L106.04 380.61V375.92L57.2998 347.78Z" fill="white"/>
<path d="M154.79 347.78L106.04 375.92V380.61L154.79 352.47V347.78Z" fill="#4CAF4F"/>
<path opacity="0.1" d="M154.79 347.78L106.04 375.92V380.61L154.79 352.47V347.78Z" fill="white"/>
<path d="M435.07 242.32L386.32 214.18L337.58 242.32L386.32 270.46L435.07 242.32Z" fill="#263238"/>
<path d="M386.32 214.18L337.58 242.32V279.84L386.32 307.99V214.18Z" fill="#263238"/>
<path d="M349.77 286.88L341.65 230.6L390.39 202.46L398.52 258.74L349.77 286.88Z" fill="#4CAF4F"/>
<path opacity="0.7" d="M349.77 286.88L341.65 230.6L390.39 202.46L398.52 258.74L349.77 286.88Z" fill="white"/>
<path d="M341.65 230.6L336.95 229.58L344.81 284.02L349.77 286.88L341.65 230.6Z" fill="#4CAF4F"/>
<path opacity="0.1" d="M341.65 230.6L336.95 229.58L344.81 284.02L349.77 286.88L341.65 230.6Z" fill="white"/>
<path d="M385.7 201.44L390.39 202.46L341.65 230.6L336.95 229.58L385.7 201.44Z" fill="#4CAF4F"/>
<path opacity="0.6" d="M385.7 201.44L390.39 202.46L341.65 230.6L336.95 229.58L385.7 201.44Z" fill="white"/>
<path d="M356.19 230.18C355.938 229.004 355.43 227.898 354.702 226.941C353.975 225.983 353.045 225.198 351.98 224.64L341.65 230.64L343.19 241.3C344.169 241.798 345.237 242.096 346.333 242.177C347.428 242.258 348.529 242.119 349.57 241.77C351.907 240.992 353.875 239.38 355.097 237.241C356.318 235.102 356.707 232.588 356.19 230.18Z" fill="#4CAF4F"/>
<path opacity="0.2" d="M356.19 230.18C355.938 229.004 355.43 227.898 354.702 226.941C353.975 225.983 353.045 225.198 351.98 224.64L341.65 230.64L343.19 241.3C344.169 241.798 345.237 242.096 346.333 242.177C347.428 242.258 348.529 242.119 349.57 241.77C351.907 240.992 353.875 239.38 355.097 237.241C356.318 235.102 356.707 232.588 356.19 230.18Z" fill="black"/>
<path d="M367.22 232.53C367.53 230.9 368.37 230.79 369.1 232.28L376.28 247L381.76 215.49C382.04 213.86 382.9 213.72 383.68 215.18L395.39 237.07L398.52 258.72L357.9 282.19C357.82 281.75 365.11 243.55 367.22 232.53Z" fill="#4CAF4F"/>
<path opacity="0.2" d="M367.22 232.53C367.53 230.9 368.37 230.79 369.1 232.28L376.28 247L381.76 215.49C382.04 213.86 382.9 213.72 383.68 215.18L395.39 237.07L398.52 258.72L357.9 282.19C357.82 281.75 365.11 243.55 367.22 232.53Z" fill="black"/>
<path d="M389.61 204.06L397.43 258.21L350.55 285.28L342.73 231.13L389.61 204.06ZM390.39 202.46L341.65 230.6L349.77 286.88L398.52 258.74L390.39 202.46Z" fill="#4CAF4F"/>
<path opacity="0.7" d="M389.61 204.06L397.43 258.21L350.55 285.28L342.73 231.13L389.61 204.06ZM390.39 202.46L341.65 230.6L349.77 286.88L398.52 258.74L390.39 202.46Z" fill="white"/>
<path d="M366.02 296.26L357.89 239.98L406.64 211.84L414.76 268.12L366.02 296.26Z" fill="#4CAF4F"/>
<path opacity="0.7" d="M366.02 296.26L357.89 239.98L406.64 211.84L414.76 268.12L366.02 296.26Z" fill="white"/>
<path d="M357.89 239.98L353.2 238.96L361.06 293.4L366.02 296.26L357.89 239.98Z" fill="#4CAF4F"/>
<path opacity="0.1" d="M357.89 239.98L353.2 238.96L361.06 293.4L366.02 296.26L357.89 239.98Z" fill="white"/>
<path d="M401.94 210.82L406.64 211.84L357.89 239.98L353.2 238.96L401.94 210.82Z" fill="#4CAF4F"/>
<path opacity="0.6" d="M401.94 210.82L406.64 211.84L357.89 239.98L353.2 238.96L401.94 210.82Z" fill="white"/>
<path d="M372.43 239.56C372.18 238.382 371.673 237.274 370.945 236.314C370.218 235.355 369.287 234.568 368.22 234.01L357.89 240.01L359.43 250.67C360.409 251.168 361.477 251.466 362.573 251.547C363.668 251.628 364.769 251.489 365.81 251.14C368.145 250.363 370.111 248.752 371.333 246.615C372.554 244.478 372.945 241.967 372.43 239.56Z" fill="#4CAF4F"/>
<path opacity="0.2" d="M372.43 239.56C372.18 238.382 371.673 237.274 370.945 236.314C370.218 235.355 369.287 234.568 368.22 234.01L357.89 240.01L359.43 250.67C360.409 251.168 361.477 251.466 362.573 251.547C363.668 251.628 364.769 251.489 365.81 251.14C368.145 250.363 370.111 248.752 371.333 246.615C372.554 244.478 372.945 241.967 372.43 239.56Z" fill="black"/>
<path d="M383.47 241.91C383.78 240.28 384.62 240.17 385.35 241.66L392.53 256.39L398 224.89C398.28 223.25 399.15 223.12 399.93 224.58L411.64 246.47L414.76 268.12L374.14 291.57C374.06 291.13 381.36 252.93 383.47 241.91Z" fill="#4CAF4F"/>
<path opacity="0.2" d="M383.47 241.91C383.78 240.28 384.62 240.17 385.35 241.66L392.53 256.39L398 224.89C398.28 223.25 399.15 223.12 399.93 224.58L411.64 246.47L414.76 268.12L374.14 291.57C374.06 291.13 381.36 252.93 383.47 241.91Z" fill="black"/>
<path d="M405.86 213.44L413.68 267.59L366.8 294.66L359 240.51L405.88 213.44M406.66 211.84L357.89 240L366 296.26L414.74 268.12L406.62 211.84H406.66Z" fill="#4CAF4F"/>
<path opacity="0.7" d="M405.86 213.44L413.68 267.59L366.8 294.66L359 240.51L405.88 213.44M406.66 211.84L357.89 240L366 296.26L414.74 268.12L406.62 211.84H406.66Z" fill="white"/>
<path d="M386.32 307.99L435.07 279.85V242.32L386.32 270.46V307.99Z" fill="#37474F"/>
<path d="M386.33 270.46L337.58 242.32V279.84L386.33 308V270.46ZM365.45 267.79L358.45 263.79C357.747 263.394 357.147 262.84 356.695 262.172C356.244 261.504 355.955 260.74 355.85 259.94C355.85 258.64 357.01 258.27 358.45 259.09L365.45 263.09C366.151 263.487 366.751 264.042 367.202 264.71C367.653 265.378 367.943 266.141 368.05 266.94C368.05 268.24 366.88 268.62 365.45 267.79Z" fill="#455A64"/>
<path d="M435.076 242.316L386.328 270.461L398.513 291.566L447.261 263.421L435.076 242.316Z" fill="#455A64"/>
<path d="M337.58 251.7L333.52 254.05L337.58 242.32V251.7Z" fill="#263238"/>
<path d="M163.31 68.08L160.17 69.29V62.36C160.17 56.87 155.78 55.55 151.02 58.3C146.26 61.04 142.41 67.73 142.41 73.22V74.22C141.74 74.013 141.032 73.9612 140.338 74.0686C139.645 74.1761 138.986 74.4399 138.41 74.84C136.602 76.0142 135.097 77.5991 134.018 79.4656C132.938 81.332 132.316 83.4271 132.2 85.58V86.04L127.82 88.57C126.629 89.3424 125.638 90.3856 124.927 91.6143C124.216 92.8431 123.806 94.2225 123.73 95.64C123.73 98.25 125.56 99.3 127.82 98L163.31 77.51C164.502 76.7366 165.495 75.6919 166.205 74.4613C166.916 73.2307 167.326 71.8493 167.4 70.43C167.4 67.84 165.57 66.78 163.31 68.08Z" fill="#C8EDCA"/>
<path d="M233.18 335.93L233 329.88L238 329.02L238.29 334.18C238.53 335.38 239.38 335.77 239.6 336.45C239.82 337.13 236.18 344.05 234.14 345.58C232.1 347.11 228.78 345.15 228.46 344.42C228.14 343.69 231.19 344.23 231.69 343.17C232.37 341.75 233.18 335.93 233.18 335.93Z" fill="#FFA8A7"/>
<path d="M238.74 335.18C238.08 335.73 237.58 337.12 236.67 339.02C235.76 340.92 234.47 344.02 233.06 344.43C231.42 344.95 228.2 344.01 230.25 343.85C230.7 343.85 231.49 343.65 231.7 343.17C231.781 343.004 231.845 342.829 231.89 342.65C231.181 342.842 230.443 342.91 229.71 342.85C229.166 342.766 228.609 342.836 228.103 343.054C227.597 343.271 227.163 343.627 226.85 344.08C226.51 344.59 227.06 345.45 227.06 345.45C227.69 346.22 228.86 346.99 231.56 347.19C234.26 347.39 235.86 347 236.83 345.19C238.08 343.167 239.449 341.22 240.93 339.36C241.94 337.81 240.31 335.59 238.74 335.18Z" fill="#263238"/>
<path d="M231.86 342.76C231.7 343.17 230.51 343.3 229.92 343.38C229.33 343.46 229.04 344.01 230 344.32C231.66 344.49 232.48 342.73 231.86 342.76Z" fill="#FFA8A7"/>
<path d="M280.59 316.37L276.43 312L279.61 308L283.25 311.67C284.25 312.41 285.13 312.14 285.74 312.5C286.35 312.86 288.23 320.5 287.74 322.96C287.25 325.42 283.45 326.19 282.74 325.85C282.03 325.51 284.66 323.9 284.33 322.78C283.84 321.26 280.59 316.37 280.59 316.37Z" fill="#FFA8A7"/>
<path d="M284.25 312.12C284.12 312.97 284.66 314.34 285.25 316.36C285.84 318.38 286.91 321.55 286.14 322.81C285.26 324.28 282.23 325.72 283.66 324.24C283.97 323.91 284.45 323.24 284.29 322.77C284.24 322.591 284.173 322.417 284.09 322.25C283.682 322.866 283.171 323.407 282.58 323.85C282.117 324.145 281.747 324.566 281.515 325.064C281.283 325.562 281.198 326.115 281.27 326.66C281.35 327.27 282.33 327.55 282.33 327.55C283.33 327.71 284.7 327.5 286.85 325.87C289 324.24 289.94 322.87 289.45 320.87C289.045 318.527 288.775 316.164 288.64 313.79C288.39 312 285.69 311.38 284.25 312.12Z" fill="#263238"/>
<path d="M284.13 322.35C284.28 322.77 283.47 323.65 283.08 324.11C282.69 324.57 282.84 325.16 283.77 324.75C285.13 323.78 284.57 321.92 284.13 322.35Z" fill="#FFA8A7"/>
<path d="M246.89 223.72C248.22 219.1 247.38 216.29 246.36 212.29C244.48 204.97 242.7 197.62 242.7 197.62C242.7 197.62 241.37 169.74 241.31 167.2C241.24 164.2 240.66 162.52 240.41 159.98C240.27 158.54 239.24 158.39 239.34 158.44V164.08C238.418 163.257 237.546 162.378 236.73 161.45C235.79 160.32 234.84 160.45 234.54 161.02C234.24 161.59 235.79 162.7 236.54 164.17C237.385 165.639 238.324 167.052 239.35 168.4V183.64L235.35 185.96L234.57 200.52L240.79 223.17L246.89 223.72Z" fill="#FFA8A7"/>
<path d="M228.74 214.15L229.6 221.73L237.07 222.59L235.99 212.53L228.74 214.15Z" fill="#FFA8A7"/>
<path d="M190.59 155.5V211.78L239.34 183.64V127.35L190.59 155.5Z" fill="#4CAF4F"/>
<path opacity="0.7" d="M190.59 155.5V211.78L239.34 183.64V127.35L190.59 155.5Z" fill="white"/>
<path d="M190.59 170.38C192.24 171.02 194.37 170.75 196.69 169.38C201.94 166.38 206.2 158.97 206.2 152.9C206.323 150.93 205.666 148.99 204.37 147.5L190.59 155.5V170.38Z" fill="#4CAF4F"/>
<path opacity="0.2" d="M190.59 170.38C192.24 171.02 194.37 170.75 196.69 169.38C201.94 166.38 206.2 158.97 206.2 152.9C206.323 150.93 205.666 148.99 204.37 147.5L190.59 155.5V170.38Z" fill="black"/>
<path d="M212.06 171.77C212.54 170.18 213.49 170.12 214.18 171.62L221.06 186.62L231.32 147.81C231.74 146.21 232.45 146.2 232.89 147.81L239.34 170.72V183.65L201.87 205.28L212.06 171.77Z" fill="#4CAF4F"/>
<path opacity="0.2" d="M212.06 171.77C212.54 170.18 213.49 170.12 214.18 171.62L221.06 186.62L231.32 147.81C231.74 146.21 232.45 146.2 232.89 147.81L239.34 170.72V183.65L201.87 205.28L212.06 171.77Z" fill="black"/>
<path d="M238.34 129.09V183.09L191.59 210.09V156.09L238.34 129.09ZM239.34 127.35L190.59 155.5V211.78L239.34 183.64V127.35Z" fill="#4CAF4F"/>
<path opacity="0.7" d="M238.34 129.09V183.09L191.59 210.09V156.09L238.34 129.09ZM239.34 127.35L190.59 155.5V211.78L239.34 183.64V127.35Z" fill="white"/>
<path d="M190.59 211.78L186.53 209.44V153.15L190.59 155.5V211.78Z" fill="#4CAF4F"/>
<path opacity="0.1" d="M190.59 211.78L186.53 209.44V153.15L190.59 155.5V211.78Z" fill="white"/>
<path d="M186.53 153.15L235.27 125.01L239.34 127.35L190.59 155.5L186.53 153.15Z" fill="#4CAF4F"/>
<path opacity="0.6" d="M186.53 153.15L235.27 125.01L239.34 127.35L190.59 155.5L186.53 153.15Z" fill="white"/>
<path d="M246.89 223.72C246.76 224.37 246.46 225.65 245.89 227.81C244.79 231.81 243.13 237.48 242.42 239.37C242.42 239.45 242.36 239.52 242.33 239.58L245.28 244.38C245.28 244.38 243.28 246.83 237.42 248.54C231.56 250.25 224.42 246.78 224.42 246.78C224.42 246.78 222.91 238.86 222.63 236.64C222.63 236.51 222.63 236.31 222.55 236.08C222.49 235.61 222.43 235.19 222.34 234.8C222.34 234.8 222.34 234.73 222.34 234.69C222.23 234.21 222.15 233.57 222.01 232.86C221.851 231.636 221.404 230.468 220.708 229.449C220.011 228.431 219.083 227.592 218 227C217.17 226.55 199.94 219.73 197.22 218.07C196.525 217.711 195.917 217.203 195.44 216.583C194.963 215.962 194.628 215.244 194.46 214.48C194.08 213.43 188.84 196.13 188.22 194.41C187.695 192.976 186.814 191.7 185.66 190.7C184.3 189.24 183.82 188.91 183.4 187.6C182.98 186.29 183.51 185.97 183.72 185.32C184.01 184.42 183.72 183.79 183.88 183.11C184.13 182.26 184.65 182.04 184.78 181.66C184.845 180.985 184.962 180.317 185.13 179.66C185.403 179.028 185.892 178.514 186.51 178.21V180.21C187.26 183.28 190.63 184.79 191.06 184.57C191.49 184.35 192.12 182.57 193.06 181.83C194 181.09 195.3 181.16 194.82 182.09C194.55 182.63 193.93 184.64 193.61 185.53C193.29 186.42 192.34 188.29 192.55 189.72C192.82 191.63 201.7 211.32 201.7 211.32C201.7 211.32 211.35 214.48 219.01 216.86C223.76 218.34 227.67 219.25 227.67 219.25L230.04 218.83L230.93 218.67L242.47 216.55L242.89 216.47C243.268 216.42 243.652 216.42 244.03 216.47C244.56 216.626 245.051 216.892 245.471 217.251C245.892 217.609 246.232 218.052 246.47 218.55C247.215 220.17 247.363 222.001 246.89 223.72Z" fill="#FFA8A7"/>
<path d="M230.17 250.81C230.17 250.81 244.69 286.27 246.01 289.51C246.843 291.878 248.482 293.877 250.64 295.16C252.58 296.51 277.87 313.92 277.87 313.92C281.74 312.31 281.82 309.79 281.82 309.79C281.82 309.79 268.76 293.14 266 290.74C263.24 288.34 258.13 287.12 258.13 287.12L251.7 260.12C250.84 255.98 251.37 251.4 245.21 244.35L230.17 250.81Z" fill="#37474F"/>
<path d="M234.71 248.83C237.71 252.99 240.46 256.65 241.24 261.44C242.88 271.57 238.91 283.93 238.43 291.49C239.872 293.771 240.749 296.363 240.99 299.05C241.13 302.16 238.39 330.79 238.39 330.79C236.697 331.725 234.743 332.076 232.83 331.79C232.83 331.79 226.73 290.42 225.56 276.97C224.39 263.52 224.36 246.82 224.36 246.82L234.71 248.83Z" fill="#37474F"/>
<path d="M223.92 202.88C223.531 201.812 223.419 200.664 223.594 199.541C223.769 198.419 224.225 197.359 224.92 196.46C227.77 192.61 233.19 190.97 238.92 192.96C241.77 193.96 245.25 197.2 245.16 204.23C245.1 208.54 232.92 210.86 232.98 213.82L223.92 202.88Z" fill="#263238"/>
<path d="M223.55 204.49C223.55 204.49 221.74 206.98 221.95 207.27C222.334 207.547 222.764 207.753 223.22 207.88L223.55 204.49Z" fill="#F28F8F"/>
<path d="M229.1 196.58C227.41 197.36 224.49 198.81 223.48 204.86C222.48 211.08 223.48 213.12 224.27 213.98C224.82 214.56 227.92 214.7 229.48 214.29C231.48 213.77 235.88 212.29 237.99 209.12C240.47 205.43 241.17 200.4 238.59 198.3C237.282 197.236 235.725 196.521 234.066 196.22C232.407 195.92 230.699 196.043 229.1 196.58Z" fill="#FFA8A7"/>
<path d="M224.36 246.79L245.25 244.38C246.72 246.79 250.25 250.91 249.5 254.87C248.59 259.66 246.01 263.03 238.12 265.38" fill="#37474F"/>
<path d="M245 230.88C243.94 234.81 243.07 237.58 242.4 239.37C242.4 239.45 242.34 239.52 242.31 239.58L245.26 244.38C245.26 244.38 243.26 246.83 237.4 248.54C231.54 250.25 224.4 246.78 224.4 246.78C224.4 246.78 222.89 238.86 222.61 236.64C222.61 236.51 222.61 236.31 222.53 236.08C222.45 235.85 222.4 235.26 222.32 234.8C222.32 234.8 222.32 234.73 222.32 234.69C222.19 233.9 222.05 233.13 221.99 232.86C229.52 229.5 227.75 219.22 227.75 219.22L230.12 218.8L231.01 218.64C234.46 218.03 236.92 217.57 240.01 216.96C240.13 216.93 246.72 224.48 245 230.88Z" fill="white"/>
<path d="M243 237.55C240.605 239.082 238.079 240.397 235.45 241.48C237.857 241.43 240.212 240.777 242.3 239.58L243 237.55Z" fill="#C8EDCA"/>
<path d="M228.6 196.82C228.6 196.82 226.91 202.45 228.47 206.13C228.47 206.13 229.58 203.95 231.47 204.68C233.36 205.41 233.08 207.96 231.47 209.2C231.068 209.558 230.573 209.795 230.043 209.884C229.512 209.972 228.966 209.908 228.47 209.7C228.553 211.527 229.218 213.279 230.37 214.7C232.35 215.374 234.479 215.476 236.514 214.993C238.548 214.51 240.405 213.462 241.87 211.97C246.7 207.24 246.5 198.37 239.79 195.8C233.08 193.23 228.6 196.82 228.6 196.82Z" fill="#263238"/>
<path d="M240.75 276.66L242.46 262.91C242.46 262.91 247.46 261.01 249.61 258.07C248.643 260.62 246.893 262.798 244.61 264.29C244.27 264.72 241.61 278.82 241.61 278.82L240.75 276.66Z" fill="#263238"/>
<path d="M248.33 202.47C246.01 203.47 244.26 201.63 242.99 198.69C241.72 195.75 241.44 192.81 243.75 191.81C246.06 190.81 248.85 192.69 250.11 195.63C251.37 198.57 250.64 201.47 248.33 202.47Z" fill="#263238"/>
<path d="M239.34 164.08C238.654 163.683 238.066 163.136 237.62 162.48C236.92 161.48 235.92 161 235.32 161.34C234.88 161.58 235.4 162.34 235.73 162.97C236.216 164.191 236.891 165.328 237.73 166.34C238.66 167.2 239.33 167.41 239.33 168.4C239.841 167.822 240.109 167.07 240.08 166.3C240.071 165.501 239.812 164.725 239.34 164.08Z" fill="#FFA8A7"/>
</g>
<defs>
<clipPath id="clip0_521_81">
<rect width="458" height="421" fill="white"/>
</clipPath>
</defs>
</svg>
