<svg width="1218" height="466" viewBox="0 0 1218 466" fill="none" xmlns="http://www.w3.org/2000/svg">
<g clip-path="url(#clip0_516_78)">
<rect width="1218" height="466" fill="#004D95"/>
<g opacity="0.3">
<path d="M494.488 488.575C489.816 488.575 485.269 488.154 480.899 487.313C471.734 485.549 463.267 481.928 455.733 476.55C447.634 470.771 440.532 462.896 434.62 453.145C422.739 433.546 416.795 410.074 411.046 387.375C409.916 382.918 408.749 378.309 407.563 373.837C399.474 343.358 389.219 316.66 376.216 292.218C350.276 243.459 313.796 201.848 270.718 171.881C220.898 137.228 167.334 119.965 119.891 123.275C92.0069 125.221 55.1637 143.729 38.6976 175.336C28.9256 194.095 28.1376 214.912 36.4204 235.535L36.2559 235.622C31.913 224.806 30.0208 213.964 30.6335 203.396C31.1955 193.701 33.8559 184.224 38.5421 175.229C45.9954 160.921 58.2867 148.24 74.0877 138.556C88.6887 129.608 104.951 124.107 119.881 123.065C144.709 121.334 171.115 125.175 198.365 134.484C223.067 142.924 247.442 155.445 270.812 171.701C313.915 201.684 350.417 243.318 376.371 292.106C389.382 316.565 399.642 343.277 407.737 373.773C408.924 378.245 410.092 382.855 411.219 387.313C416.963 409.995 422.903 433.45 434.768 453.02C446.243 471.949 461.774 483.416 480.93 487.101C507.457 492.206 539.67 481.53 567.097 458.54C606.622 425.411 634.053 377.19 660.582 330.559C665.232 322.385 670.04 313.933 674.8 305.772C687.158 284.579 703.896 257.118 723.786 232.652C744.118 207.646 764.779 189.273 786.951 176.482C800.522 168.653 814.904 163.378 829.698 160.805C843.363 158.427 857.827 158.279 872.688 160.363C898.18 163.938 925.643 174.037 956.649 191.236C1017.7 225.103 1078.68 266.211 1137.91 313.419C1194.2 358.288 1249.41 409.062 1302 464.323L1301.88 464.477C1192.86 349.922 1076.68 258.054 956.569 191.423C888.71 153.778 834.838 149.089 787.032 176.667C738.397 204.722 704.421 255.352 674.95 305.886C670.192 314.046 665.384 322.497 660.734 330.671C634.198 377.319 606.758 425.554 567.206 458.706C554.425 469.42 540.046 477.776 525.626 482.87C518.008 485.562 510.435 487.321 503.116 488.102C500.199 488.419 497.32 488.575 494.488 488.575Z" fill="#E8E8E8" fill-opacity="0.5"/>
<path d="M499.055 476.953C487.142 476.953 476.106 474.348 466.244 469.208C455.247 463.477 445.757 454.596 438.036 442.813C437.353 441.769 436.675 440.69 436.021 439.603C424.266 420.089 418.058 396.923 412.056 374.518C410.842 369.99 409.588 365.307 408.315 360.762C400.738 333.703 391.613 309.854 380.416 287.856C379.037 285.148 377.61 282.434 376.169 279.79C349.848 231.451 313.072 190.367 269.816 160.977C219.637 126.915 165.921 110.366 118.563 114.381C90.8813 116.753 54.2079 135.564 37.6713 166.928C27.7693 185.71 26.6488 206.569 34.4273 227.251L34.261 227.334C30.1838 216.494 28.5084 205.631 29.2838 195.05C29.9958 185.332 32.7646 175.835 37.5159 166.821C45.045 152.538 57.3002 139.842 72.953 130.108C87.4203 121.111 103.612 115.452 118.547 114.174C143.345 112.072 169.78 115.545 197.117 124.497C221.878 132.607 246.369 144.821 269.907 160.799C313.187 190.205 349.984 231.314 376.321 279.68C377.762 282.326 379.191 285.042 380.57 287.752C391.773 309.765 400.904 333.626 408.485 360.7C409.759 365.244 411.014 369.928 412.228 374.458C418.228 396.848 424.431 419.998 436.169 439.485C436.822 440.568 437.499 441.647 438.181 442.689C454.135 467.044 476.058 476.953 499.111 476.953C499.238 476.953 499.363 476.953 499.489 476.953C499.344 476.95 499.2 476.953 499.055 476.953ZM503.973 476.807C525.405 475.544 547.521 466.087 566.494 452.02C607.42 421.552 636.833 374.493 665.28 328.984C666.451 327.109 667.622 325.237 668.793 323.365C671.365 319.256 674.414 314.392 677.526 309.489C691.487 287.499 708.383 261.913 727.842 238.884C748.547 214.379 769.231 196.195 791.075 183.291C804.498 175.37 818.683 169.79 833.237 166.706C846.722 163.849 860.972 163.042 875.587 164.306C900.837 166.491 927.986 174.774 958.587 189.632C988.421 204.095 1012.95 217.71 1035.77 232.478C1068.1 253.42 1098.89 277.549 1124.75 298.389C1184.87 346.98 1243.86 402.154 1300.08 462.381L1299.96 462.533C1243.74 402.314 1184.76 347.143 1124.65 298.559C1098.79 277.721 1068 253.597 1035.68 232.661C1012.86 217.897 988.347 204.286 958.518 189.827C891.857 157.46 838.676 155.441 791.159 183.477C741.842 212.607 706.721 263.86 677.672 309.613C674.558 314.517 671.511 319.379 668.94 323.49C667.768 325.359 666.597 327.233 665.426 329.109C636.971 374.632 607.546 421.707 566.591 452.199C556.436 459.727 545.631 465.708 534.473 469.972C524.086 473.937 513.848 476.23 503.973 476.807Z" fill="#E8E8E8" fill-opacity="0.5"/>
<path d="M504.091 465.596C502.658 465.596 501.234 465.561 499.82 465.488C487.918 464.884 476.902 461.749 467.081 456.165C456.341 450.058 447.035 441.012 439.425 429.278C438.749 428.232 438.075 427.151 437.424 426.063C425.801 406.645 419.335 383.788 413.084 361.686C411.78 357.079 410.432 352.315 409.066 347.692C401.114 320.724 391.749 297.066 380.431 275.365C379.031 272.681 377.581 269.99 376.119 267.367C349.417 219.449 312.344 178.892 268.911 150.079C218.374 116.608 164.507 100.771 117.232 105.492C90.6143 108.192 54.0476 125.929 36.6616 158.492C26.6168 177.304 25.1547 198.219 32.4326 218.974L32.2645 219.051C28.4512 208.177 26.9963 197.289 27.9361 186.69C28.7999 176.941 31.6844 167.419 36.508 158.384C44.1166 144.134 56.332 131.435 71.8349 121.655C86.1666 112.613 102.284 106.801 117.216 105.286C141.984 102.815 168.448 105.919 195.87 114.514C220.693 122.296 245.298 134.201 269.002 149.901C312.46 178.732 349.552 219.312 376.271 267.257C377.733 269.882 379.184 272.574 380.585 275.261C391.908 296.974 401.278 320.647 409.234 347.629C410.6 352.255 411.949 357.019 413.252 361.626C419.501 383.715 425.962 406.556 437.57 425.951C438.221 427.039 438.891 428.118 439.567 429.16C470.492 476.841 525.296 471.722 565.889 445.499C608.523 417.715 640.206 371.539 670.847 326.883L671.161 326.424C674.129 322.095 677.197 317.622 680.252 313.204C712.481 266.597 747.905 218.7 795.202 190.095C808.48 182.081 822.47 176.196 836.78 172.604C850.091 169.263 864.124 167.796 878.49 168.244C903.538 169.025 930.372 175.495 960.528 188.024C992.221 201.145 1016.07 213.205 1037.86 227.131C1068.9 247.013 1098.97 272.136 1125.5 294.302C1184.57 343.919 1242.67 399.814 1298.16 460.429L1298.04 460.578C1242.55 399.969 1184.46 344.081 1125.4 294.468C1098.87 272.306 1068.8 247.187 1037.77 227.312C1015.99 213.39 992.148 201.334 960.467 188.217C895.099 161.058 842.612 161.712 795.285 190.276C748.019 218.862 712.609 266.738 680.393 313.328C677.338 317.746 674.27 322.222 671.302 326.549L670.988 327.007C655.718 349.26 639.93 372.271 622.88 392.825C603.719 415.923 585.106 433.21 565.976 445.675C545.962 458.603 524.161 465.596 504.091 465.596Z" fill="#E8E8E8" fill-opacity="0.5"/>
<path d="M1296.13 458.621C1241.35 397.622 1184.17 341.016 1126.15 290.376C1123.7 288.247 1121.24 286.107 1118.76 283.961C1093.64 262.127 1067.65 239.55 1039.87 221.962C1012.91 204.946 985.593 194.542 962.424 186.609C898.47 164.576 846.675 167.902 799.42 197.073C750.911 227.108 713.323 276.975 683.122 317.045C681.309 319.45 679.5 321.859 677.687 324.27C676.35 326.05 675.011 327.831 673.672 329.609C656.475 352.448 640.833 372.866 623.55 391.499C603.806 412.783 584.775 428.371 565.367 439.155C547.178 449.263 527.748 454.61 509.675 454.612C506.383 454.612 503.138 454.436 499.95 454.077C488.312 452.768 477.537 449.088 467.925 443.141C457.438 436.653 448.316 427.435 440.811 415.744C440.14 414.696 439.472 413.613 438.825 412.523C427.339 393.206 420.622 370.671 414.126 348.878C412.728 344.185 411.28 339.329 409.816 334.616C401.484 307.734 391.877 284.264 380.448 262.866C379.025 260.204 377.552 257.537 376.07 254.937C348.985 207.441 311.618 167.41 268.01 139.172C217.115 106.293 163.097 91.1715 115.905 96.5916C83.6437 100.37 50.6536 122.337 35.6785 150.008C25.4764 168.861 23.6673 189.842 30.4428 210.684L30.2729 210.757C26.7253 199.844 25.4891 188.923 26.5987 178.296C27.6198 168.512 30.6235 158.958 35.5249 149.898C43.213 135.69 55.3887 122.991 70.7361 113.176C84.9305 104.097 100.965 98.1334 115.887 96.3862C140.627 93.5433 167.118 96.2804 194.625 104.518C219.508 111.972 244.229 123.57 268.1 138.99C311.735 167.244 349.122 207.297 376.224 254.823C377.708 257.425 379.181 260.094 380.603 262.756C392.04 284.167 401.651 307.649 409.988 334.544C411.452 339.258 412.899 344.112 414.298 348.808C420.79 370.588 427.504 393.109 438.975 412.403C439.622 413.49 440.289 414.572 440.957 415.617C473.241 465.905 528.111 459.624 565.289 438.966C609.645 414.318 643.588 369.243 673.536 329.472C674.875 327.692 676.213 325.911 677.552 324.133C679.363 321.722 681.174 319.313 682.986 316.908C700.226 294.036 717.25 271.81 735.967 251.329C757.49 227.774 778.219 209.968 799.337 196.891C812.476 188.779 826.267 182.589 840.33 178.495C853.472 174.667 867.291 172.542 881.402 172.177C906.288 171.533 932.81 176.19 962.478 186.41C985.655 194.347 1012.99 204.755 1039.96 221.782C1067.75 239.376 1093.74 261.959 1118.88 283.798C1121.35 285.943 1123.81 288.083 1126.27 290.212C1184.28 340.856 1241.48 397.469 1296.26 458.474L1296.13 458.621Z" fill="#E8E8E8" fill-opacity="0.5"/>
<path d="M1294.21 456.667C1239.13 394.111 1182.84 336.785 1126.91 286.284C1123.56 283.262 1120.14 280.148 1116.83 277.137C1093.11 255.572 1068.59 233.273 1041.96 216.613C1015.37 200.035 987.819 191.328 964.377 184.999C901.979 167.989 850.875 173.986 803.551 203.872C758.413 232.481 723.049 275.501 688.85 317.105L685.095 321.672C682.129 325.281 679.062 329.01 676.039 332.668C641.805 374.033 607.535 412.802 564.755 432.631C554.374 437.443 543.715 440.778 533.07 442.548C521.639 444.447 510.535 444.474 500.066 442.627C488.694 440.62 478.163 436.406 468.765 430.099C458.538 423.237 449.599 413.852 442.2 402.206C441.533 401.152 440.87 400.067 440.228 398.979C428.884 379.777 421.924 357.573 415.194 336.1C413.692 331.309 412.138 326.353 410.569 321.541C401.851 294.742 392.005 271.461 380.467 250.37C379.025 247.735 377.53 245.089 376.025 242.51C348.558 195.434 310.896 155.931 267.109 128.268C215.855 95.9836 161.685 81.5742 114.575 87.6978C82.6076 91.9414 49.7676 114.062 34.7166 141.492C24.3446 160.392 22.1777 181.454 28.4489 202.402L28.2772 202.471C24.9952 191.51 23.9813 180.548 25.2627 169.89C26.4446 160.064 29.573 150.473 34.5611 141.384C42.3324 127.224 54.4647 114.537 69.6495 104.693C83.7029 95.5811 99.6503 89.4741 114.553 87.4945C139.264 84.2822 165.782 86.6499 193.376 94.5311C218.32 101.657 243.155 112.945 267.194 128.087C311.006 155.765 348.69 195.293 376.173 242.395C377.678 244.977 379.175 247.625 380.617 250.26C392.162 271.362 402.013 294.654 410.735 321.469C412.304 326.281 413.858 331.238 415.36 336.03C422.087 357.49 429.043 379.683 440.375 398.863C441.015 399.946 441.678 401.03 442.343 402.084C473.849 451.672 526.199 450.28 564.685 432.44C607.431 412.627 641.686 373.873 675.905 332.527C678.928 328.868 681.995 325.14 684.961 321.531L688.717 316.964C705.504 296.543 722.862 275.425 741.713 255.78C763.064 233.531 783.263 216.492 803.461 203.689C816.466 195.476 830.062 188.981 843.87 184.386C856.851 180.066 870.455 177.281 884.302 176.109C909.08 174.011 935.284 176.854 964.417 184.795C987.87 191.128 1015.43 199.838 1042.05 216.43C1068.69 233.097 1093.22 255.402 1116.94 276.973C1120.25 279.984 1123.67 283.096 1127.02 286.12C1182.95 336.625 1239.25 393.956 1294.34 456.517L1294.21 456.667Z" fill="#E8E8E8" fill-opacity="0.5"/>
<path d="M1292.3 454.712C1237.68 391.461 1182.29 333.417 1127.66 282.193C1123.56 278.344 1119.35 274.341 1115.28 270.471C1092.84 249.139 1069.64 227.081 1044.05 211.267C1017.59 194.973 989.912 188.032 966.331 183.392C905.662 171.272 855.25 179.941 807.681 210.673C766.168 237.606 732.084 275.775 699.121 312.687C695.653 316.571 692.065 320.586 688.57 324.477C684.466 329.047 681.33 332.518 678.404 335.73C662.733 352.925 644.075 372.723 624.495 389.191C603.746 406.64 584.005 418.717 564.143 426.113C553.698 430.002 543.084 432.454 532.593 433.401C521.328 434.417 510.421 433.67 500.178 431.178C489.079 428.479 478.794 423.729 469.604 417.061C459.638 409.832 450.886 400.278 443.588 388.67C442.93 387.618 442.271 386.531 441.631 385.439C430.436 366.365 423.243 344.504 416.285 323.363C414.672 318.46 413.003 313.39 411.321 308.466C402.21 281.741 392.124 258.651 380.483 237.874C379.019 235.261 377.503 232.64 375.976 230.082C348.128 183.427 310.169 144.451 266.205 117.363C214.595 85.6723 160.274 71.9788 113.246 78.8017C86.4877 82.7692 51.5386 101.047 33.7802 132.932C23.2221 151.89 20.6883 173.048 26.4553 194.116L26.2836 194.179C23.2673 183.162 22.4793 172.151 23.9396 161.452C25.2878 151.577 28.5463 141.944 33.6284 132.82C41.4828 118.718 53.5699 106.052 68.5866 96.1867C82.4991 87.0481 98.3507 80.802 113.225 78.5962C137.907 75.0146 164.454 77.0129 192.13 84.5372C217.134 91.3352 242.085 102.317 266.29 117.18C310.279 144.283 348.259 183.282 376.124 229.963C377.651 232.522 379.169 235.147 380.633 237.762C392.279 258.55 402.371 281.652 411.487 308.389C413.172 313.315 414.84 318.385 416.454 323.288C423.406 344.419 430.597 366.267 441.779 385.321C442.419 386.41 443.077 387.496 443.734 388.546C469.945 430.242 514.938 444.212 564.087 425.912C608.596 409.34 644.905 372.198 678.28 335.577C681.206 332.365 684.339 328.893 688.444 324.324C691.939 320.433 695.526 316.418 698.995 312.533C715.222 294.362 732.001 275.572 749.898 257.977C770.136 238.079 789.01 222.545 807.594 210.489C820.474 202.168 833.872 195.368 847.417 190.279C860.247 185.459 873.636 182.016 887.21 180.043C911.926 176.453 937.817 177.48 966.362 183.183C989.956 187.827 1017.65 194.77 1044.14 211.078C1069.75 226.903 1092.95 248.967 1115.39 270.305C1119.46 274.175 1123.67 278.178 1127.78 282.027C1182.41 333.257 1237.81 391.305 1292.42 454.56L1292.3 454.712Z" fill="#E8E8E8" fill-opacity="0.5"/>
<path d="M1290.38 452.757C1236.24 388.807 1181.75 330.043 1128.41 278.102C1123.87 273.684 1119.22 269.046 1114.71 264.562C1093.24 243.201 1071.04 221.113 1046.15 205.918C1019.66 189.819 991.923 184.683 968.284 181.782C910.366 174.484 859.182 186.159 811.81 217.472C774.09 242.518 741.756 276.024 710.487 308.429C704.17 314.974 697.64 321.743 691.291 328.194C687.408 332.143 683.967 335.61 680.768 338.794C665.892 353.581 646.104 372.541 624.959 388.035C603.713 403.603 583.617 413.926 563.526 419.593C541.613 425.775 519.743 425.821 500.282 419.728C489.462 416.34 479.421 411.056 470.437 404.024C460.737 396.431 452.17 386.712 444.972 375.139C444.32 374.085 443.665 372.995 443.029 371.904C431.994 352.975 424.577 331.473 417.406 310.68C415.671 305.65 413.878 300.45 412.069 295.397C402.559 268.743 392.232 245.84 380.497 225.384C379.012 222.794 377.474 220.196 375.925 217.661C347.695 171.428 309.442 132.976 265.301 106.467C213.335 75.3719 158.862 62.3923 111.916 69.9144C80.1004 75.1229 48.3338 96.9943 32.8708 124.336C22.1102 143.362 19.2023 164.63 24.4615 185.839L24.288 185.895C21.5391 174.812 20.9789 163.744 22.6217 152.999C24.1398 143.067 27.5375 133.385 32.719 124.221C40.6565 110.186 52.6966 97.5483 67.538 87.6751C81.304 78.5177 97.0563 72.1348 111.89 69.7069C136.544 65.756 163.12 67.387 190.881 74.5523C215.946 81.0224 241.013 91.6966 265.384 106.28C309.551 132.806 347.825 171.278 376.073 217.54C377.622 220.076 379.16 222.676 380.647 225.268C392.387 245.736 402.72 268.65 412.235 295.316C414.044 300.369 415.837 305.572 417.572 310.602C424.739 331.384 432.153 352.875 443.177 371.785C443.813 372.877 444.466 373.962 445.118 375.016C470.879 416.443 515.127 433.032 563.482 419.392C607.566 406.956 645.847 373.23 680.648 338.638C683.845 335.455 687.288 331.989 691.17 328.041C697.518 321.589 704.049 314.822 710.364 308.277C741.64 275.867 773.98 242.352 811.718 217.295C824.484 208.856 837.687 201.753 850.957 196.179C863.65 190.85 876.823 186.748 890.11 183.986C914.821 178.85 940.398 178.064 968.3 181.579C991.956 184.482 1019.72 189.62 1046.23 205.737C1071.14 220.943 1093.35 243.039 1114.83 264.408C1119.33 268.892 1123.99 273.528 1128.53 277.946C1181.87 329.892 1236.37 388.66 1290.51 452.614L1290.38 452.757Z" fill="#E8E8E8" fill-opacity="0.5"/>
<path d="M1288.46 450.802C1234.81 386.147 1181.21 326.667 1129.17 274.011C1124.38 269.172 1119.46 264.049 1114.71 259.093C1094.02 237.552 1072.63 215.276 1048.24 200.57C1021.64 184.608 993.883 181.303 970.236 180.174C914.507 177.318 864.035 191.742 815.94 224.271C782.21 247.193 752.143 276.203 723.064 304.256C713.066 313.903 703.621 323.014 694.015 331.91C690.108 335.531 686.549 338.785 683.134 341.854C661.094 361.64 642.757 375.946 625.425 386.873C603.682 400.583 583.234 409.153 562.913 413.071C555.03 414.59 547.176 415.347 539.464 415.347C525.794 415.347 512.566 412.973 500.389 408.271C478.351 399.761 460.173 384.059 446.36 361.601C445.71 360.536 445.061 359.447 444.432 358.359C433.565 339.594 425.94 318.474 418.566 298.047C416.697 292.872 414.767 287.522 412.821 282.32C402.904 255.728 392.335 233.016 380.515 212.885C379.008 210.319 377.449 207.743 375.878 205.23C347.267 159.419 308.718 121.495 264.4 95.5601C212.077 65.0626 157.454 52.7947 110.589 61.0161C78.642 66.7371 47.7918 88.1935 31.9979 115.68C21.0187 134.785 17.7259 156.18 22.4718 177.551L22.2965 177.603C19.8187 166.443 19.4898 155.308 21.3205 144.507C23.0158 134.509 26.5562 124.773 31.8479 115.566C39.8687 101.607 51.8563 89.0111 66.517 79.1379C80.1348 69.966 95.7768 63.4585 110.562 60.8107C135.186 56.4904 161.791 57.752 189.636 64.5604C214.763 70.7047 239.943 81.0718 264.483 95.3733C308.826 121.324 347.397 159.269 376.026 205.108C377.597 207.623 379.156 210.198 380.666 212.767C392.492 232.908 403.067 255.632 412.987 282.235C414.933 287.437 416.865 292.789 418.732 297.964C426.102 318.381 433.724 339.493 444.582 358.241C445.211 359.326 445.858 360.416 446.508 361.478C472.302 403.42 514.719 422.15 562.883 412.864C608.732 404.024 649.341 371.924 683.022 341.688C686.435 338.619 689.994 335.367 693.901 331.746C703.505 322.85 712.95 313.741 722.948 304.094C752.031 276.034 782.106 247.021 815.848 224.091C828.518 215.521 841.523 208.113 854.503 202.07C867.075 196.218 880.033 191.456 893.017 187.918C917.778 181.172 943.04 178.57 970.243 179.964C993.91 181.093 1021.69 184.403 1048.32 200.383C1072.73 215.1 1094.13 237.386 1114.83 258.936C1119.58 263.891 1124.5 269.014 1129.28 273.851C1181.33 326.511 1234.93 385.997 1288.59 450.657L1288.46 450.802Z" fill="#E8E8E8" fill-opacity="0.5"/>
<path d="M1286.55 448.848C1232.63 382.561 1181.39 324.034 1129.92 269.92C1125.01 264.757 1120.17 259.484 1115.05 253.902C1095.04 232.08 1074.35 209.518 1050.33 195.223C1023.4 179.267 994.425 177.939 972.19 178.566C918.998 179.869 869.239 197.045 820.07 231.074C790.57 251.59 763.332 276.228 736.991 300.056C723.147 312.579 710.072 324.405 696.737 335.629C692.78 338.964 689.102 342.002 685.498 344.917C663.158 362.962 644.218 375.923 625.889 385.709C603.641 397.587 582.841 404.404 562.299 406.549C551.745 407.651 541.263 407.444 531.144 405.933C520.43 404.333 510.118 401.264 500.494 396.813C479.163 386.946 461.417 370.547 447.749 348.067C447.103 347.001 446.46 345.909 445.835 344.822C435.15 326.25 427.334 305.532 419.774 285.497C417.757 280.152 415.671 274.624 413.573 269.249C403.241 242.715 392.433 220.192 380.532 200.394C379.002 197.85 377.42 195.297 375.832 192.807C346.839 147.417 307.995 110.02 263.5 84.66C222.431 61.3506 180.08 49.1885 141.243 49.1885C130.264 49.1885 119.574 50.1597 109.263 52.1248C77.701 58.2587 47.0441 79.7919 31.1581 106.984C19.9457 126.178 16.2534 147.718 20.4807 169.272L20.3036 169.317C18.0969 158.07 18.0047 146.859 20.0289 135.996C21.9048 125.925 25.5989 116.125 31.0063 106.868C39.1101 92.9957 51.0418 80.4518 65.5145 70.5889C79.1757 61.278 94.2936 54.8224 109.231 51.9214C133.826 47.2317 160.46 48.1261 188.39 54.5755C213.576 60.3898 238.874 70.4478 263.58 84.4712C308.1 109.845 346.967 147.263 375.978 192.681C377.568 195.171 379.152 197.725 380.682 200.271C392.589 220.08 403.402 242.613 413.739 269.16C415.837 274.535 417.925 280.063 419.942 285.41C427.498 305.437 435.311 326.146 445.987 344.704C446.612 345.789 447.255 346.88 447.899 347.945C473.459 389.98 515.149 411.262 562.285 406.34C609.981 401.358 653.131 370.804 685.397 344.743C689.001 341.827 692.677 338.79 696.634 335.457C709.967 324.237 723.041 312.409 736.883 299.888C763.227 276.058 790.468 251.414 819.979 230.891C845.294 213.371 870.135 200.603 895.925 191.855C920.797 183.418 945.744 179.002 972.19 178.354C987.277 177.929 999.587 178.668 1010.93 180.676C1025.57 183.27 1038.49 187.966 1050.42 195.034C1074.46 209.342 1095.16 231.916 1115.18 253.748C1120.3 259.33 1125.14 264.601 1130.05 269.764C1181.52 323.88 1232.76 382.412 1286.68 448.703L1286.55 448.848Z" fill="#E8E8E8" fill-opacity="0.5"/>
<path d="M1284.63 446.893C1231.2 379.88 1180.84 320.655 1130.67 265.827C1125.71 260.403 1120.82 254.814 1115.63 248.898C1096.22 226.732 1076.15 203.809 1052.43 189.873C1025.27 173.992 996.326 174.627 974.144 176.953C923.946 182.035 874.899 201.962 824.199 237.869C799.219 255.647 775.435 275.991 752.434 295.667C734.251 311.219 717.078 325.911 699.461 339.339C695.479 342.377 691.575 345.282 687.861 347.971C665.478 364.165 645.358 376.124 626.351 384.532C603.592 394.6 582.439 399.668 561.685 400.021C551.125 400.199 540.684 399.103 530.659 396.761C520.15 394.304 510.036 390.463 500.598 385.341C479.999 374.163 462.684 357.066 449.134 334.525C448.498 333.46 447.858 332.367 447.235 331.273C436.751 312.927 428.765 292.647 421.04 273.036C418.855 267.487 416.594 261.747 414.323 256.167C403.567 229.683 392.52 207.351 380.548 187.891C378.996 185.37 377.393 182.84 375.782 180.373C346.409 135.404 307.268 98.5335 262.596 73.7486C209.563 44.4484 154.635 33.6082 107.933 43.2241C76.7789 49.7503 46.3262 71.3395 30.3517 98.2222C18.8863 117.518 14.7838 139.22 18.4851 160.983L18.308 161.023C16.3778 149.678 16.526 138.379 18.7508 127.441C20.8165 117.288 24.6678 107.417 30.2017 98.1039C38.385 84.3316 50.257 71.85 64.5345 62.0078C78.0385 52.699 93.0335 46.1334 107.9 43.0187C132.468 37.9617 159.129 38.4847 187.142 44.5771C212.39 50.0678 237.802 59.8186 262.674 73.5598C307.373 98.3571 346.535 135.25 375.925 180.246C377.537 182.713 379.142 185.245 380.695 187.768C392.673 207.239 403.725 229.581 414.485 256.076C416.759 261.656 419.018 267.396 421.205 272.947C428.925 292.55 436.908 312.821 447.385 331.155C448.008 332.246 448.648 333.34 449.283 334.402C475.112 377.373 515.03 400.606 561.681 399.809C599.534 399.166 639.598 382.636 687.764 347.791C691.476 345.101 695.378 342.198 699.359 339.16C716.971 325.735 734.144 311.047 752.323 295.494C775.328 275.816 799.116 255.468 824.103 237.687C849.665 219.582 874.107 205.878 898.825 195.787C923.867 185.565 948.498 179.333 974.127 176.739C996.333 174.409 1025.31 173.776 1052.51 189.682C1076.25 203.635 1096.34 226.568 1115.76 248.745C1120.94 254.661 1125.84 260.247 1130.8 265.669C1180.97 320.499 1231.33 379.728 1284.76 446.745L1284.63 446.893Z" fill="#E8E8E8" fill-opacity="0.5"/>
<path d="M1282.71 444.938C1229.78 377.197 1180.3 317.27 1131.43 261.737C1126.47 256.099 1121.57 250.241 1116.38 244.039C1097.52 221.476 1078.01 198.146 1054.52 184.525C1027.11 168.703 998.213 171.307 976.099 175.343C928.869 183.799 881.916 205.828 828.33 244.669C808.233 259.303 788.594 275.356 769.601 290.879C746.533 309.734 724.744 327.544 702.184 343.055C698.119 345.853 694.096 348.538 690.227 351.032C667.443 365.711 646.7 376.286 626.815 383.358C615.677 387.319 604.681 390.189 594.134 391.888C582.884 393.7 571.76 394.242 561.072 393.499C539.386 391.99 519.076 385.387 500.707 373.875C480.868 361.441 463.984 343.649 450.526 320.989C449.893 319.916 449.259 318.82 448.639 317.733C438.379 299.657 430.25 279.859 422.39 260.714C420.01 254.918 417.55 248.925 415.076 243.094C403.887 216.654 392.599 194.51 380.566 175.397C378.992 172.896 377.365 170.39 375.735 167.947C345.98 123.397 306.545 87.0542 261.696 62.8483C208.309 34.1478 153.23 24.0214 106.606 34.3325C56.6834 45.5442 8.03685 93.987 16.4949 152.702L16.316 152.735C14.1997 138.047 15.4395 123.578 19.9992 109.724C24.1632 97.0727 30.9965 85.1659 40.3094 74.3381C48.9681 64.2698 59.3563 55.5772 71.1832 48.5012C82.4317 41.7717 94.6688 36.7998 106.57 34.1271C131.109 28.7007 157.799 28.8563 185.897 34.5919C211.206 39.7568 236.734 49.2005 261.772 62.6616C306.646 86.884 346.105 123.248 375.878 167.823C377.51 170.267 379.136 172.774 380.712 175.276C392.751 194.398 404.044 216.554 415.239 243.005C417.713 248.836 420.172 254.829 422.553 260.627C430.411 279.765 438.536 299.555 448.791 317.621C449.409 318.708 450.041 319.804 450.674 320.875C476.541 364.423 515.752 390.139 561.082 393.293C599.458 395.96 641.673 382.079 690.138 350.854C694.006 348.359 698.027 345.676 702.092 342.879C724.647 327.372 746.432 309.564 769.496 290.711C788.491 275.186 808.132 259.131 828.233 244.495C881.84 205.637 928.815 183.6 976.07 175.137C990.929 172.425 1003.23 171.558 1014.79 172.411C1029.56 173.5 1042.58 177.401 1054.6 184.338C1078.12 197.974 1097.63 221.318 1116.51 243.893C1121.69 250.094 1126.59 255.952 1131.55 261.588C1180.43 317.125 1229.91 377.054 1282.84 444.799L1282.71 444.938Z" fill="#E8E8E8" fill-opacity="0.5"/>
<path d="M1280.8 442.983C1228.37 374.504 1179.76 313.88 1132.18 257.645C1127.26 251.827 1122.39 245.732 1117.24 239.277C1098.89 216.282 1079.91 192.504 1056.62 179.176C1028.61 163.22 998.365 168.427 978.053 173.731C922.924 187.949 873.518 221.005 832.462 251.47C817.706 262.464 802.987 274.109 788.751 285.37C760.194 307.962 733.222 329.3 704.91 346.772C700.746 349.343 696.603 351.806 692.595 354.095C669.366 367.332 648.002 376.521 627.283 382.181C603.796 388.6 581.315 390.214 560.461 386.977C539.038 383.651 518.97 375.383 500.817 362.404C481.778 348.791 465.326 330.304 451.916 307.456C451.291 306.383 450.66 305.285 450.043 304.193C440.038 286.449 431.808 267.195 423.847 248.573C421.239 242.47 418.541 236.162 415.83 230.022C404.037 203.249 392.838 181.923 380.586 162.903C378.99 160.425 377.344 157.944 375.69 155.522C345.55 111.395 305.819 75.5792 260.792 51.9461C207.051 23.8473 151.821 14.4327 105.276 25.4389C55.1747 37.4433 7.52216 85.2284 14.5019 144.42L14.3229 144.447C12.5916 129.762 14.0898 115.307 18.7743 101.485C23.0684 88.8203 29.9414 76.9011 39.2056 66.0608C47.8444 55.951 58.1784 47.1941 69.9221 40.0289C81.1037 33.206 93.3173 28.0909 105.24 25.2335C129.752 19.4378 156.469 19.2261 184.65 24.6027C210.021 29.4418 235.664 38.5784 260.868 51.7572C305.922 75.4028 345.675 111.24 375.829 155.393C377.483 157.817 379.131 160.301 380.729 162.778C392.988 181.807 404.191 203.145 415.989 229.928C418.7 236.068 421.398 242.379 424.006 248.482C431.965 267.097 440.194 286.346 450.192 304.081C450.808 305.173 451.437 306.269 452.062 307.341C478.13 351.757 516.634 379.965 560.483 386.772C599.809 392.876 642.996 382.125 692.513 353.908C696.52 351.622 700.662 349.161 704.823 346.59C733.128 329.121 760.097 307.788 788.648 285.198C802.884 273.937 817.604 262.289 832.363 251.293C859.971 230.81 882.937 215.677 904.636 203.668C930.18 189.533 954.18 179.674 978.011 173.527C992.538 169.734 1005.2 168.016 1016.72 168.277C1031.56 168.614 1044.63 172.116 1056.69 178.989C1080.02 192.334 1099.01 216.127 1117.37 239.135C1122.52 245.589 1127.39 251.683 1132.31 257.498C1179.89 313.735 1228.5 374.363 1280.93 442.844L1280.8 442.983Z" fill="#E8E8E8" fill-opacity="0.5"/>
<path d="M1278.88 441.026C1226.96 371.806 1179.22 310.483 1132.93 253.551C1128.08 247.581 1123.28 241.274 1118.19 234.597C1100.32 211.14 1081.85 186.884 1058.71 173.826C1030.39 157.908 1000.23 165.227 980.008 172.118C930.058 188.991 885.505 221.117 836.593 258.267C827.772 264.993 818.849 271.934 810.219 278.649C777.031 304.471 742.714 331.171 707.633 350.486C703.371 352.835 699.106 355.078 694.958 357.153C671.572 368.84 648.959 376.863 627.747 380.998C603.718 385.684 580.874 385.499 559.844 380.453C538.721 375.383 518.897 365.45 500.922 350.928C482.731 336.232 466.708 317.052 453.298 293.921C452.678 292.847 452.053 291.747 451.44 290.655C441.737 273.326 433.454 254.698 425.444 236.684C422.558 230.194 419.574 223.483 416.576 216.952C404.323 190.207 392.89 169.064 380.597 150.413C378.983 147.964 377.313 145.503 375.636 143.1C345.12 99.3884 305.096 64.0995 259.888 41.0433C205.795 13.5463 150.414 4.84546 103.946 16.5448C55.4346 28.8916 6.90189 75 12.5063 136.136L12.3273 136.157C10.9809 121.471 12.7376 107.033 17.5468 93.242C21.9692 80.5632 28.8838 68.6336 38.0973 57.7809C55.0966 37.7605 79.0828 22.6559 103.906 16.3394C128.389 10.1764 155.135 9.59533 183.401 14.6129C208.833 19.1283 234.59 27.9557 259.961 40.8523C305.193 63.9211 345.241 99.2328 375.777 142.965C377.456 145.37 379.125 147.831 380.741 150.282C393.04 168.943 404.478 190.095 416.735 216.851C419.733 223.383 422.719 230.094 425.605 236.585C433.613 254.594 441.894 273.218 451.592 290.539C452.203 291.631 452.828 292.728 453.448 293.803C480.277 340.082 517.081 369.973 559.879 380.247C599.509 389.759 644.929 381.926 694.882 356.963C699.028 354.887 703.29 352.646 707.55 350.299C742.618 330.991 776.931 304.295 810.113 278.477C818.742 271.762 827.665 264.82 836.488 258.095C857.899 241.833 882.812 223.18 907.538 207.606C933.402 191.317 957.088 179.644 979.952 171.921C994.345 167.018 1007 164.473 1018.65 164.146C1033.34 163.731 1046.84 166.926 1058.78 173.641C1069.15 179.491 1079.58 188.221 1090.67 200.331C1100.47 211.024 1109.55 222.939 1118.32 234.46C1123.41 241.135 1128.21 247.442 1133.06 253.41C1179.35 310.344 1227.09 371.669 1279.01 440.891L1278.88 441.026Z" fill="#E8E8E8" fill-opacity="0.5"/>
<path d="M1276.96 439.072C1225.55 369.104 1178.69 307.082 1133.69 249.461C1128.92 243.36 1124.2 236.863 1119.2 229.986C1101.8 206.042 1083.81 181.282 1060.8 168.481C1039.31 156.555 1013.52 157.219 981.96 170.51C937.841 188.989 898.403 219.897 856.647 252.623C851.448 256.699 846.073 260.911 840.723 265.072C838.629 266.705 836.532 268.342 834.438 269.977C794.652 301.039 753.513 333.159 710.357 354.205C705.994 356.334 701.61 358.357 697.325 360.216C673.425 370.577 650.175 377.172 628.22 379.816C603.636 382.775 580.425 380.795 559.236 373.931C538.441 367.193 518.861 355.593 501.04 339.453C483.766 323.809 468.173 303.938 454.692 280.388C454.078 279.311 453.458 278.209 452.849 277.115C443.514 260.33 435.259 242.453 427.272 225.166C424.039 218.164 420.694 210.924 417.334 203.877C404.607 177.15 392.943 156.19 380.621 137.917C378.983 135.489 377.294 133.053 375.595 130.673C344.692 87.3842 304.372 52.6203 258.987 30.1409C204.543 3.24775 149.009 -4.74134 102.618 7.65107C54.9979 20.4772 6.5339 66.9632 10.5153 127.855L10.3346 127.871C9.37494 113.184 11.3882 98.7618 16.3221 85.0061C20.8747 72.3128 27.8291 60.3686 36.9938 49.5076C53.9208 29.4457 77.8238 14.117 102.576 7.44979C127.032 0.917418 153.805 -0.0329663 182.154 4.62768C207.648 8.8152 233.523 17.3355 259.06 29.9499C304.469 52.4439 344.815 87.2265 375.73 130.538C377.429 132.918 379.123 135.358 380.76 137.786C393.087 156.069 404.759 177.036 417.489 203.774C420.851 210.821 424.194 218.063 427.429 225.064C435.412 242.347 443.668 260.22 452.999 276.999C453.608 278.093 454.226 279.193 454.84 280.27C482.251 328.154 518.366 360.47 559.283 373.725C599.674 386.811 646.096 382.198 697.26 360.017C701.541 358.158 705.924 356.137 710.285 354.01C753.426 332.973 794.558 300.859 834.335 269.801C836.431 268.164 838.526 266.528 840.62 264.895C845.97 260.735 851.345 256.522 856.544 252.449C898.309 219.717 937.758 188.8 981.897 170.313C996.153 164.308 1008.81 160.94 1020.59 160.012C1035.33 158.852 1048.89 161.639 1060.88 168.292C1071.18 174.025 1081.49 182.795 1092.37 195.102C1101.98 205.961 1110.81 218.106 1119.34 229.851C1124.34 236.726 1129.06 243.221 1133.82 249.32C1178.83 306.943 1225.69 368.967 1277.1 438.937L1276.96 439.072Z" fill="#E8E8E8" fill-opacity="0.5"/>
<path d="M1275.05 437.117C1228.13 371.918 1180.82 307.403 1134.44 245.369C1129.72 239.09 1125.04 232.343 1120.09 225.203C1103.97 201.975 1085.71 175.648 1062.9 163.133C1041.15 151.228 1015.31 153.115 983.912 168.898C946.577 187.603 913.538 215.106 878.558 244.223C867.605 253.341 856.277 262.773 844.851 271.87C824.908 287.784 803.334 304.623 780.72 319.96C756.5 336.386 734.374 348.801 713.075 357.919C708.6 359.835 704.096 361.638 699.685 363.275C675.279 372.329 651.396 377.481 628.699 378.589C603.572 379.814 579.994 376.054 558.618 367.405C519.143 351.235 484.642 317.405 456.074 266.852C455.465 265.773 454.851 264.669 454.245 263.576C445.384 247.531 437.273 230.605 429.43 214.234C425.737 206.529 421.921 198.561 418.08 190.806C404.869 164.086 392.97 143.31 380.633 125.425C378.972 123.018 377.261 120.604 375.542 118.249C344.264 75.3778 303.647 41.143 258.085 19.2384C203.289 -7.05295 147.604 -14.3261 101.289 -1.2427C53.3801 12.3678 6.13064 58.2376 8.52167 119.573L8.34094 119.581C7.76804 104.89 10.0416 90.4844 15.0966 76.7639C19.781 64.054 26.7752 52.0974 35.8875 41.2281C44.4721 30.9875 54.647 22.0335 66.1287 14.613C77.276 7.41041 89.0902 2.00688 101.244 -1.44606C125.673 -8.34572 152.475 -9.66548 180.907 -5.36383C206.462 -1.49794 232.451 6.71317 258.154 19.0454C303.743 40.9625 344.383 75.218 375.679 118.11C377.398 120.467 379.113 122.883 380.774 125.29C393.116 143.185 405.021 163.969 418.237 190.699C422.078 198.455 425.895 206.424 429.587 214.13C437.431 230.499 445.54 247.423 454.397 263.461C455.001 264.557 455.617 265.659 456.224 266.738C484.77 317.252 519.241 351.055 558.677 367.207C599.3 383.642 648.04 382.214 699.629 363.076C704.037 361.439 708.541 359.638 713.012 357.724C760.632 337.341 804.202 304.05 844.746 271.697C856.172 262.6 867.498 253.171 878.452 244.053C913.439 214.929 946.485 187.42 983.838 168.707C1015.29 152.899 1041.17 151.013 1062.97 162.944C1073.19 168.549 1083.34 177.335 1093.99 189.8C1103.38 200.792 1111.95 213.136 1120.23 225.072C1125.18 232.213 1129.86 238.957 1134.58 245.232C1180.96 307.269 1228.27 371.783 1275.19 436.984L1275.05 437.117Z" fill="#E8E8E8" fill-opacity="0.5"/>
<path d="M1273.13 435.162C1226.93 369.602 1180.52 304.37 1135.19 241.277C1130.62 234.929 1126.08 228.065 1121.28 220.798C1105.56 197.028 1087.75 170.085 1064.99 157.781C1042.98 145.897 1017.1 149.006 985.864 167.281C953.139 186.401 923.073 213.398 893.998 239.509C879.419 252.6 864.342 266.138 848.98 278.666C824.734 298.458 804.333 313.556 784.777 326.183C760.662 341.752 738.098 353.348 715.798 361.632C711.221 363.333 706.594 364.914 702.049 366.332C678.366 373.713 655.11 377.448 632.862 377.45C631.626 377.45 630.397 377.437 629.168 377.415C603.447 376.933 579.504 371.368 558.005 360.876C547.628 355.784 537.465 349.32 527.802 341.663C518.718 334.467 509.792 325.99 501.271 316.469C485.94 299.342 471.608 278.682 457.461 253.314C456.853 252.223 456.248 251.129 455.646 250.031C447.437 235.064 439.672 219.418 432.162 204.286C427.827 195.552 423.345 186.519 418.83 177.727C404.93 150.639 393.156 130.652 380.648 112.924C378.965 110.54 377.232 108.15 375.491 105.817C343.833 63.3713 302.922 29.6636 257.183 8.33376C202.036 -17.3537 146.2 -23.9131 99.9609 -10.1386C52.95 3.90553 5.76191 50.1239 6.53 111.287L6.34927 111.289C5.99143 82.8003 15.8248 55.71 34.785 32.9484C43.3551 22.6602 53.4759 13.6418 64.869 6.13833C75.9548 -1.16183 87.7455 -6.70646 99.9157 -10.342C124.316 -17.611 151.147 -19.2981 179.662 -15.3554C205.278 -11.8132 231.383 -3.90924 257.25 8.1387C303.018 29.483 343.953 63.2115 375.631 105.682C377.371 108.017 379.108 110.409 380.79 112.794C393.304 130.531 405.084 150.525 418.987 177.623C423.502 186.418 427.986 195.45 432.32 204.184C439.829 219.314 447.593 234.958 455.8 249.921C456.401 251.019 457.005 252.113 457.612 253.202C487.675 307.109 520.536 342.267 558.075 360.685C610.069 386.059 665.041 377.653 702.002 366.132C706.543 364.715 711.166 363.136 715.742 361.434C767.031 342.381 813.833 307.102 848.876 278.497C864.236 265.974 879.31 252.436 893.888 239.347C922.97 213.232 953.042 186.227 985.782 167.099C999.758 158.921 1012.41 153.899 1024.45 151.749C1039.3 149.097 1052.97 151.064 1065.06 157.597C1075.26 163.106 1085.3 171.963 1095.78 184.67C1105.02 195.868 1113.36 208.478 1121.42 220.675C1126.22 227.94 1130.76 234.802 1135.33 241.146C1180.66 304.239 1227.07 369.471 1273.27 435.031L1273.13 435.162Z" fill="#E8E8E8" fill-opacity="0.5"/>
<path d="M1271.22 433.208L1135.95 237.187C1131.53 230.785 1127.14 223.819 1122.5 216.446C1107.17 192.114 1089.8 164.536 1067.08 152.436C1045.12 140.737 1018.45 145.19 987.818 165.673C958.37 185.364 931.512 211.549 905.538 236.873C888.608 253.381 871.1 270.448 853.113 285.47C799.048 330.62 751.798 357.287 704.417 369.395C684.761 374.416 665.371 376.944 646.566 376.944C640.866 376.944 635.223 376.711 629.641 376.247C603.312 374.055 579.004 366.689 557.395 354.354C537.366 342.921 519.044 326.781 501.387 305.009C487.287 287.624 473.77 266.898 458.851 239.783C450.977 225.473 443.352 210.605 435.978 196.227C419.29 163.689 402.034 130.044 380.67 100.432C347.9 55.015 304.887 19.3983 256.28 -2.56859C200.784 -27.6501 144.796 -33.4977 98.6332 -19.0323C53.9392 -5.02756 5.42997 39.1344 4.53717 103.006L4.35645 103.001C4.75585 74.4524 14.8965 47.3663 33.6814 24.6711C50.6662 4.15054 73.7162 -11.4417 98.5862 -19.2336C122.959 -26.8699 149.819 -28.9263 178.415 -25.3427C204.093 -22.1263 230.313 -14.5273 256.347 -2.76157C280.398 8.10773 303.241 22.4154 324.241 39.7652C345.417 57.2603 364.45 77.6252 380.807 100.295C402.18 129.917 419.441 163.571 436.134 196.117C443.507 210.493 451.132 225.359 459.005 239.667C480.771 279.23 511.636 327.997 557.476 354.164C610.046 384.171 666.377 378.896 704.377 369.187C751.735 357.087 798.963 330.431 853.006 285.298C870.987 270.282 888.492 253.215 905.421 236.712C931.4 211.383 958.265 185.191 987.728 165.491C1018.41 144.972 1045.14 140.515 1067.16 152.245C1077.33 157.663 1087.29 166.597 1097.6 179.56C1106.67 190.97 1114.79 203.859 1122.64 216.322C1127.29 223.695 1131.68 230.656 1136.09 237.056L1271.36 433.077L1271.22 433.208Z" fill="#E8E8E8" fill-opacity="0.5"/>
<path d="M1270.13 418.139C1235.68 363.56 1206.13 319.271 1177.12 278.763C1163.04 259.085 1148.66 239.716 1134.38 221.194C1130.06 215.592 1125.78 209.632 1121.25 203.322C1109.86 187.462 1098.09 171.062 1084.54 158.892C1077.26 152.345 1070.26 147.657 1063.13 144.561C1041.24 134.964 1015.55 141.31 986.791 163.424C971.904 174.851 958.349 187.856 947.054 199.07C935.095 210.941 923.299 224.033 911.89 236.693C895.492 254.892 878.536 273.708 860.308 289.869C849.217 299.732 837.974 308.545 826.89 316.065C804.714 331.109 780.913 343.506 756.146 352.91C740.843 358.656 725.467 362.999 710.447 365.817C697.501 368.237 684.532 369.633 671.897 369.968C652.988 370.47 634.564 368.554 617.139 364.269C598.61 359.712 581.076 352.439 565.024 342.649C550.71 333.919 537.19 322.927 523.691 309.043C498.538 283.192 478.475 253.3 463.807 230.146C456.602 218.719 449.566 207.065 442.761 195.795C423.169 163.339 404.662 132.684 381.504 105.378C362.616 83.253 341.066 64.1601 317.447 48.626C299.296 36.6881 279.555 26.9248 258.773 19.606C253.823 17.865 248.779 16.2423 243.785 14.7876C222.286 8.53539 198.083 4.46407 171.85 2.68572C145.403 0.851348 122.521 2.43879 101.901 7.5435C90.2445 10.4071 78.9508 14.8997 68.3294 20.8946C30.832 42.0605 6.75357 77.5922 3.91976 115.944L3.69385 115.921C4.44929 105.697 6.66684 95.6267 10.2832 85.9859C13.7188 76.8285 18.4376 67.997 24.3077 59.7361C35.399 44.1314 50.5873 30.6185 68.23 20.6601C78.8676 14.6548 90.1794 10.156 101.854 7.28826C122.495 2.1794 145.395 0.589888 171.865 2.42634C198.112 4.20469 222.328 8.28016 243.842 14.5365C248.84 15.9932 253.886 17.616 258.84 19.359C279.638 26.682 299.395 36.4536 317.56 48.4019C341.196 63.9464 362.764 83.0559 381.661 105.195C404.834 132.518 423.344 163.181 442.944 195.646C449.747 206.916 456.782 218.567 463.986 229.993C478.647 253.136 498.7 283.013 523.84 308.848C537.324 322.718 550.83 333.699 565.127 342.419C596.543 361.578 632.463 370.76 671.89 369.708C684.514 369.374 697.474 367.978 710.409 365.56C725.418 362.742 740.784 358.403 756.073 352.661C780.826 343.263 804.613 330.875 826.774 315.839C837.851 308.325 849.087 299.516 860.169 289.662C878.386 273.509 895.339 254.697 911.731 236.504C923.142 223.842 934.94 210.746 946.904 198.871C958.205 187.651 971.767 174.642 986.664 163.206C999.47 153.36 1011.87 146.558 1023.52 142.986C1037.83 138.6 1051.19 139.048 1063.21 144.319C1070.36 147.425 1077.39 152.125 1084.68 158.687C1098.25 170.876 1110.03 187.285 1121.42 203.156C1125.95 209.464 1130.23 215.423 1134.55 221.022C1148.83 239.546 1163.22 258.917 1177.3 278.599C1206.31 319.111 1235.86 363.404 1270.31 417.987L1270.13 418.139Z" fill="#E8E8E8" fill-opacity="0.5"/>
<path d="M1269.04 403.065C1237.1 347.563 1207.13 301.118 1177.4 261.079C1162.91 241.522 1147.9 222.721 1132.81 205.201C1128.81 200.553 1124.85 195.722 1120.67 190.609C1108.13 175.297 1095.17 159.464 1080.65 148.51C1073.32 142.955 1066.3 139.087 1059.18 136.684C1031.91 127.479 1004.2 144.918 985.764 161.168C972.699 172.648 960.767 185.627 948.682 199.026C938.104 210.754 928.151 223.371 917.615 236.726C901.977 256.552 885.805 277.051 867.505 294.264C856.645 304.534 845.311 313.413 833.819 320.655C812.411 334.147 788.969 344.624 762.153 352.688C747.145 357.199 731.776 360.414 716.472 362.238C703.559 363.759 690.669 364.302 678.159 363.848C659.548 363.18 641.356 360.175 624.086 354.919C605.948 349.397 588.641 341.329 572.649 330.939C558.637 321.838 545.108 310.545 531.287 296.418C506.188 270.797 484.687 242.393 468.761 220.509C462.866 212.408 457.064 204.257 451.453 196.372C429.106 164.972 407.998 135.31 382.339 110.322C363.162 91.6465 341.631 75.8551 318.35 63.388C300.734 53.9547 282.063 46.8869 261.273 41.7802C256.474 40.6036 251.593 39.5432 246.766 38.6281C225.563 34.6294 202.934 33.1167 175.555 31.5521C155.82 30.3672 129.985 29.587 105.165 34.1148C93.4106 36.2189 82.0483 39.8732 71.3907 44.9716C33.868 62.9274 8.4143 94.2944 3.2997 128.882L3.03223 128.83C4.38769 119.658 7.13473 110.663 11.1921 102.09C15.0597 93.9229 20.1417 86.0915 26.2955 78.808C37.9904 64.9713 53.5475 53.1703 71.2859 44.6832C81.9633 39.5743 93.3474 35.9139 105.122 33.8056C129.965 29.2715 155.82 30.0539 175.568 31.2387C202.955 32.8033 225.591 34.3161 246.809 38.3168C251.64 39.234 256.525 40.2944 261.329 41.471C282.139 46.584 300.828 53.6579 318.464 63.1017C341.769 75.5812 363.317 91.3851 382.514 110.08C408.192 135.086 429.308 164.756 451.662 196.169C457.272 204.052 463.073 212.203 468.969 220.302C484.891 242.177 506.383 270.571 531.468 296.179C545.272 310.292 558.787 321.572 572.782 330.663C604.229 351.092 639.688 362.151 678.168 363.533C690.668 363.985 703.545 363.443 716.445 361.922C731.734 360.1 747.091 356.89 762.084 352.381C788.879 344.326 812.301 333.857 833.69 320.377C845.168 313.143 856.487 304.276 867.335 294.017C885.619 276.819 901.783 256.327 917.416 236.512C927.956 223.151 937.911 210.532 948.496 198.798C960.587 185.391 972.524 172.407 985.601 160.915C997.554 150.38 1009.35 142.802 1020.65 138.386C1034.35 133.032 1047.34 132.358 1059.26 136.379C1066.4 138.792 1073.45 142.673 1080.8 148.244C1095.35 159.22 1108.32 175.067 1120.87 190.392C1125.05 195.502 1129.01 200.331 1133.01 204.977C1148.1 222.504 1163.11 241.31 1177.61 260.874C1207.34 300.923 1237.32 347.376 1269.26 402.891L1269.04 403.065Z" fill="#E8E8E8" fill-opacity="0.5"/>
<path d="M1267.95 387.991C1238.06 330.812 1208.53 283.515 1177.69 243.397C1162.77 223.96 1147.15 205.73 1131.25 189.211C1127.85 185.679 1124.35 181.931 1120.97 178.308C1106.99 163.338 1092.55 147.86 1076.77 138.13C1069.37 133.532 1062.32 130.482 1055.23 128.807C1028.02 122.376 1001.88 141.629 984.74 158.91C973.125 170.576 962.507 183.799 952.238 196.588L950.315 198.982C940.992 210.584 932.246 223.308 922.986 236.782C908.24 258.236 892.994 280.419 874.702 298.659C864.059 309.35 852.635 318.296 840.747 325.247C820.019 337.368 796.951 346.017 768.156 352.466C753.266 355.801 737.904 357.884 722.495 358.656C709.615 359.276 696.805 358.965 684.418 357.726C646.916 353.993 611.877 341.041 580.271 319.229C566.608 309.8 553.07 298.211 538.885 283.793C514.879 259.446 493.527 234.421 473.718 210.875C471.061 207.718 468.433 204.583 465.825 201.472C438.769 169.207 413.214 138.73 383.18 115.273C363.573 99.9591 342.065 87.4713 319.255 78.1541C302.509 71.3147 284.36 66.6706 263.775 63.9564C259.136 63.3484 254.417 62.8483 249.749 62.4706C238.005 61.5368 225.549 61.3854 212.362 61.2256C201.769 61.0969 190.817 60.9641 179.26 60.4225C156.938 59.2875 131.64 58.003 108.427 60.6923C96.45 62.0805 85.0189 64.8943 74.45 69.057C36.9417 83.8316 10.1108 111.038 2.67749 141.834L2.37207 141.737C4.33116 133.617 7.60595 125.696 12.1043 118.195C16.4056 111.021 21.8491 104.186 28.283 97.8799C40.5888 85.8195 56.5182 75.7346 74.3452 68.7125C84.9376 64.5395 96.3922 61.7195 108.392 60.3291C131.629 57.6378 156.94 58.9243 179.27 60.0594C190.821 60.5989 201.773 60.7338 212.362 60.8624C225.555 61.0222 238.014 61.1737 249.769 62.1096C254.441 62.4893 259.165 62.9894 263.808 63.5974C284.418 66.3137 302.588 70.964 319.358 77.8138C342.195 87.1413 363.727 99.6437 383.356 114.974C413.416 138.452 438.984 168.943 466.051 201.223C468.659 204.334 471.289 207.467 473.944 210.626C493.75 234.167 515.094 259.187 539.092 283.525C553.263 297.927 566.787 309.506 580.434 318.922C611.998 340.707 646.992 353.64 684.445 357.369C696.817 358.606 709.615 358.917 722.481 358.297C737.873 357.525 753.221 355.444 768.095 352.113C796.861 345.67 819.902 337.032 840.603 324.928C852.466 317.991 863.868 309.061 874.493 298.389C892.761 280.172 907.998 258.002 922.734 236.56C931.998 223.08 940.749 210.35 950.08 198.739L952.003 196.345C962.278 183.55 972.901 170.319 984.529 158.64C1001.72 141.303 1027.95 121.994 1055.29 128.454C1062.42 130.137 1069.49 133.198 1076.92 137.815C1092.73 147.566 1107.19 163.06 1121.18 178.047C1124.56 181.67 1128.06 185.417 1131.46 188.947C1147.36 205.475 1163 223.715 1177.92 243.163C1208.78 283.297 1238.31 330.611 1268.21 387.809L1267.95 387.991Z" fill="#E8E8E8" fill-opacity="0.5"/>
<path d="M1266.85 372.916C1239.41 314.874 1209.51 265.348 1177.97 225.718C1162.64 206.403 1146.39 188.742 1129.68 173.224C1127.27 170.983 1124.8 168.657 1122.41 166.408C1106.62 151.548 1090.29 136.18 1072.9 127.755C1065.43 124.101 1058.37 121.87 1051.29 120.932C1024.15 117.338 999.567 138.373 983.719 156.653C973.878 167.945 964.995 180.504 956.405 192.649C954.92 194.751 953.434 196.849 951.947 198.939C943.776 210.418 936.137 223.242 928.049 236.817C914.299 259.896 900.081 283.76 881.9 303.058C871.223 314.39 860.028 323.151 847.674 329.845C821.833 343.846 796.009 349.028 774.157 352.252C759.377 354.431 744.023 355.386 728.516 355.083C715.676 354.802 702.943 353.634 690.675 351.613C654.3 345.635 619.72 330.802 587.896 307.526C574.654 297.843 561.108 285.953 546.482 271.177C531.707 256.286 517.939 241.957 504.623 228.1C495.574 218.681 487.026 209.785 478.678 201.25C447.123 168.987 418.219 140.62 384.027 120.231C363.999 108.289 342.512 99.1001 320.163 92.9226C304.145 88.4944 287.023 86.3383 266.281 86.1329C261.806 86.0955 257.248 86.1557 252.736 86.3134C245.881 86.5687 238.789 87.102 231.283 87.6685C216.879 88.7537 200.55 89.9843 182.962 89.2953C176.264 89.0318 169.431 88.6604 162.822 88.2993C145.822 87.3717 128.245 86.413 111.685 87.2701C99.5235 87.9009 88.022 89.8764 77.5036 93.1425C40.0586 104.773 11.8524 127.821 2.04967 154.795L1.71533 154.636C4.28167 147.572 8.08419 140.728 13.0163 134.294C17.7531 128.114 23.5581 122.277 30.2667 116.946C43.1942 106.674 59.4941 98.3054 77.406 92.7421C87.9497 89.4676 99.4765 87.4859 111.665 86.855C128.243 85.996 145.828 86.9567 162.836 87.8843C169.444 88.2453 176.277 88.6168 182.973 88.8803C200.545 89.5692 216.861 88.3408 231.258 87.2555C238.767 86.689 245.861 86.1557 252.723 85.9005C257.241 85.7428 261.803 85.6826 266.283 85.72C287.054 85.9233 304.201 88.0856 320.246 92.52C342.622 98.7058 364.138 107.905 384.192 119.863C399.637 129.073 415.288 140.741 432.039 155.532C447.036 168.773 461.625 183.261 478.917 200.941C487.264 209.478 495.813 218.374 504.864 227.793C518.178 241.648 531.946 255.977 546.717 270.865C561.328 285.627 574.86 297.505 588.085 307.177C619.866 330.422 654.398 345.234 690.722 351.204C702.976 353.223 715.692 354.39 728.518 354.67C744.007 354.973 759.345 354.02 774.107 351.841C795.931 348.623 821.721 343.448 847.517 329.472C859.837 322.796 871.002 314.058 881.651 302.755C899.801 283.49 914.008 259.645 927.747 236.585C935.84 223.001 943.483 210.171 951.663 198.679C953.15 196.59 954.634 194.492 956.12 192.392C964.715 180.238 973.603 167.671 983.457 156.364C993.767 144.472 1004.35 135.323 1014.9 129.172C1027.39 121.887 1039.65 118.977 1051.33 120.525C1058.44 121.467 1065.54 123.709 1073.03 127.377C1090.47 135.825 1106.82 151.212 1122.63 166.09C1125.02 168.339 1127.49 170.666 1129.9 172.905C1146.62 188.435 1162.88 206.112 1178.23 225.442C1194.97 246.485 1211.37 270.461 1226.97 296.702C1240.76 319.895 1254.28 345.473 1267.16 372.721L1266.85 372.916Z" fill="#E8E8E8" fill-opacity="0.5"/>
<path d="M1265.76 357.836C1240.37 298.13 1210.92 247.73 1178.25 208.036C1162.5 188.844 1145.64 171.753 1128.12 157.236C1127.29 156.545 1126.46 155.854 1125.62 155.161C1107.41 140.046 1088.59 124.416 1069.03 117.38C1061.46 114.653 1054.37 113.24 1047.36 113.057C1020.33 112.356 997.279 135.149 982.703 154.391C974.126 165.648 966.512 177.987 959.149 189.918C957.329 192.869 955.446 195.92 953.588 198.891C946.509 210.209 939.929 223.076 932.963 236.701C920.293 261.484 907.192 287.109 889.104 307.453C878.64 319.223 867.356 328.051 854.605 334.442C829.486 347.032 803.98 350.337 780.16 352.035C765.472 353.08 750.123 352.902 734.539 351.505C721.74 350.323 709.089 348.299 696.935 345.494C661.797 337.401 627.676 320.688 595.523 295.818C582.646 285.86 569.478 274.02 554.085 258.556C524.831 229.248 503.108 208.605 483.65 191.624C444.951 157.852 415.415 137.983 384.892 125.188C364.457 116.622 342.992 110.735 321.089 107.689C305.894 105.577 289.767 105.765 268.803 108.307C264.507 108.834 260.112 109.455 255.738 110.154C251.607 110.824 247.41 111.592 242.966 112.404C226.558 115.402 207.959 118.801 186.673 118.166C175.453 117.832 163.993 116.917 152.911 116.033C140.316 115.029 127.293 113.989 114.945 113.848C102.566 113.707 90.9936 114.844 80.5602 117.23C43.2399 125.761 13.6547 144.655 1.42122 167.769L1.07422 167.526C4.25142 161.521 8.58167 155.754 13.9439 150.386C19.1199 145.202 25.2827 140.365 32.2624 136.006C45.8207 127.535 62.4946 120.882 80.4807 116.772C90.943 114.381 102.54 113.24 114.949 113.381C127.307 113.522 140.338 114.562 152.938 115.568C164.017 116.452 175.471 117.367 186.682 117.701C207.93 118.334 226.509 114.939 242.899 111.945C247.345 111.132 251.545 110.366 255.678 109.694C260.057 108.994 264.456 108.374 268.756 107.845C289.753 105.301 305.906 105.11 321.134 107.228C343.067 110.279 364.563 116.174 385.027 124.752C415.592 137.564 445.159 157.454 483.892 191.255C503.357 208.241 525.088 228.891 554.349 258.207C569.731 273.659 582.884 285.487 595.747 295.435C627.857 320.269 661.928 336.959 697.012 345.039C709.15 347.841 721.786 349.86 734.568 351.043C750.134 352.437 765.463 352.616 780.133 351.572C803.916 349.876 829.379 346.579 854.441 334.019C867.144 327.652 878.389 318.854 888.817 307.126C906.865 286.825 919.953 261.227 932.609 236.471C939.58 222.838 946.164 209.96 953.254 198.626C955.112 195.656 956.995 192.606 958.815 189.655C966.183 177.713 973.803 165.366 982.394 154.09C991.906 141.532 1001.88 131.598 1012.03 124.564C1023.93 116.323 1035.82 112.3 1047.37 112.597C1054.41 112.779 1061.54 114.201 1069.15 116.94C1088.77 124.001 1107.63 139.652 1125.86 154.789C1126.69 155.482 1127.53 156.176 1128.36 156.864C1145.89 171.398 1162.78 188.509 1178.55 207.723C1211.24 247.452 1240.71 297.891 1266.13 357.639L1265.76 357.836Z" fill="#E8E8E8" fill-opacity="0.5"/>
<path d="M789.152 351.819C788.138 351.819 787.138 351.817 786.155 351.81C771.543 351.74 756.2 350.432 740.554 347.922C727.802 345.836 715.23 342.958 703.189 339.37C685.983 334.253 668.717 326.899 651.864 317.513C635.589 308.449 619.199 297.211 603.147 284.106C587.418 271.268 572.727 256.962 561.684 245.933C535.847 220.198 511.265 198.688 488.619 181.998C451.942 154.968 419.258 138.489 385.756 130.141C365.545 125.105 343.862 122.449 322.984 122.449C322.661 122.449 322.339 122.449 322.015 122.451C304.08 122.522 287.052 126.348 271.325 130.473C267.231 131.554 262.997 132.735 258.739 133.986C256.406 134.68 254.069 135.393 251.597 136.149C234.158 141.484 214.392 147.528 190.379 147.033C175.754 146.73 160.817 144.991 146.371 143.308C137.044 142.22 127.4 141.098 118.201 140.419C105.556 139.488 93.9187 139.786 83.61 141.312C46.4884 146.798 15.5243 161.539 0.778734 180.746L0.438965 180.404C8.00243 170.554 19.3793 162.025 34.2532 155.053C48.4584 148.396 65.5064 143.465 83.5521 140.799C93.888 139.272 105.556 138.969 118.23 139.905C127.438 140.583 137.087 141.708 146.418 142.795C160.855 144.478 175.783 146.217 190.388 146.518C214.339 147.014 234.071 140.977 251.481 135.653C253.955 134.895 256.292 134.182 258.627 133.488C262.888 132.237 267.126 131.054 271.224 129.973C286.978 125.842 304.035 122.009 322.014 121.936C343.224 121.851 365.296 124.516 385.852 129.639C403.142 133.949 419.905 140.293 437.094 149.033C453.649 157.452 470.583 168.093 488.862 181.566C511.525 198.268 536.126 219.795 561.979 245.547C573.012 256.57 587.693 270.865 603.405 283.689C635.978 310.279 669.588 328.845 703.301 338.874C715.326 342.458 727.881 345.332 740.616 347.415C756.241 349.922 771.563 351.229 786.155 351.298C808.988 351.406 835.501 350.522 861.36 338.559C874.448 332.504 885.771 323.649 895.976 311.491C913.899 290.139 925.78 262.733 937.273 236.228C943.184 222.595 948.767 209.717 954.838 198.569C956.782 194.998 958.745 191.319 960.643 187.76C967.055 175.737 973.684 163.307 981.322 151.818C990.051 138.599 999.418 127.877 1009.16 119.951C1020.46 110.76 1031.97 105.618 1043.39 104.668C1050.44 104.08 1057.59 104.68 1065.26 106.502C1085.75 111.37 1106.07 125.514 1126.81 140.822C1144.89 154.169 1162.89 171.174 1178.86 190.001C1196.59 210.854 1213.26 235.317 1228.39 262.71C1241.86 287.115 1254.21 313.979 1265.08 342.557L1264.67 342.765C1241.32 281.392 1212.34 230.117 1178.53 190.364C1162.59 171.564 1144.62 154.584 1126.56 141.26C1105.86 125.979 1085.58 111.862 1065.16 107.01C1057.54 105.199 1050.43 104.603 1043.42 105.186C1022.45 106.936 1000.52 123.607 981.681 152.133C974.058 163.602 967.434 176.021 961.028 188.032C959.13 191.593 957.165 195.274 955.221 198.845C949.161 209.972 943.582 222.84 937.678 236.46C932.039 249.465 926.209 262.914 919.518 275.841C911.933 290.498 904.341 302.276 896.304 311.852C886.053 324.064 874.68 332.958 861.53 339.042C849.932 344.408 837.468 347.955 823.423 349.889C811.529 351.518 799.583 351.819 789.152 351.819Z" fill="#E8E8E8" fill-opacity="0.5"/>
<path d="M818.134 352.858C808.919 352.858 800.067 352.227 792.147 351.588C777.586 350.414 762.25 347.976 746.566 344.34C733.868 341.354 721.376 337.623 709.437 333.247C676.745 321.288 644.469 301.382 610.765 272.395C596.067 259.755 582.21 246.155 569.281 233.31C543.755 208.026 518.29 187.524 493.59 172.371C457.264 150.087 423.276 138.24 386.628 135.09C365.747 133.295 343.727 134.028 322.947 137.207C305.554 139.867 289.156 146.288 273.849 152.633C270.019 154.229 265.945 155.972 261.743 157.813C260.693 158.275 259.634 158.746 258.561 159.222C240.931 167.049 220.982 175.905 195.38 175.905C194.948 175.905 194.518 175.903 194.083 175.897C176.762 175.696 159.077 172.857 141.973 170.11C135.192 169.02 128.18 167.895 121.452 166.985C108.309 165.208 96.9268 164.683 86.6524 165.385C49.2833 167.937 17.7409 178.263 0.116277 193.72L-0.185547 193.265C8.52735 185.625 21.1259 178.991 36.2438 174.081C51.1141 169.253 68.5344 166.049 86.6217 164.814C96.925 164.11 108.336 164.636 121.508 166.416C128.243 167.327 135.257 168.454 142.04 169.541C159.128 172.284 176.796 175.121 194.084 175.322C220.219 175.629 240.493 166.626 258.378 158.684C259.45 158.209 260.511 157.738 261.561 157.273C265.766 155.43 269.842 153.687 273.675 152.092C289.008 145.734 305.436 139.305 322.876 136.636C343.689 133.453 365.745 132.719 386.661 134.516C404.822 136.076 422.138 139.761 439.596 145.779C457.577 151.977 475.313 160.508 493.82 171.863C518.551 187.036 544.048 207.563 569.601 232.873C582.525 245.713 596.372 259.305 611.058 271.932C644.717 300.879 676.944 320.757 709.584 332.697C721.504 337.065 733.98 340.792 746.66 343.773C762.322 347.405 777.637 349.841 792.176 351.011C816.643 352.983 842.672 353.995 868.277 343.087C881.75 337.345 893.152 328.434 903.132 315.845C920.912 293.419 931.978 262.831 941.743 235.842C946.655 222.263 951.296 209.437 956.416 198.503C958.263 194.558 960.123 190.481 961.921 186.538C967.546 174.202 973.361 161.446 980.245 149.533C988.21 135.655 996.972 124.144 1006.29 115.321C1016.99 105.188 1028.13 98.93 1039.41 96.7242C1046.46 95.3442 1053.64 95.1243 1061.35 96.0456C1082.9 98.625 1104.8 111.37 1125.25 124.761C1144.13 137.124 1162.78 153.55 1179.17 172.264C1197.4 193.019 1214.19 217.727 1229.09 245.697C1242.41 270.71 1254.17 298.217 1264.04 327.459L1263.57 327.665C1242.59 265.507 1213.28 211.91 1178.82 172.666C1162.46 153.988 1143.85 137.593 1125.01 125.255C1104.6 111.895 1082.77 99.1811 1061.3 96.6121C1053.64 95.6949 1046.5 95.9149 1039.5 97.2845C1018.67 101.358 997.776 120.023 980.663 149.844C973.792 161.732 967.983 174.476 962.364 186.8C960.566 190.744 958.706 194.822 956.857 198.771C951.748 209.679 947.112 222.493 942.204 236.058C932.423 263.088 921.339 293.727 903.501 316.227C893.465 328.885 882 337.845 868.451 343.62C856.693 348.629 844.009 351.53 829.672 352.483C825.795 352.752 821.935 352.858 818.134 352.858Z" fill="#E8E8E8" fill-opacity="0.5"/>
<path d="M836.324 355.105C836.192 355.105 836.062 355.105 835.93 355.105C822.907 355.068 810.121 353.238 798.138 351.366C783.599 349.096 768.271 345.525 752.579 340.756C739.938 336.874 727.526 332.286 715.688 327.123C684.303 313.454 653.386 292.344 618.388 260.685C605.784 249.286 593.381 237.012 581.384 225.145C579.884 223.659 578.382 222.175 576.88 220.692C551.222 195.413 524.874 175.918 498.569 162.749C462.548 144.719 426.22 137.29 387.508 140.039C366.282 141.548 344.282 145.671 323.887 151.963C307.795 156.928 293.456 164.895 276.38 174.793C272.919 176.808 269.224 178.982 264.752 181.639L264.503 181.788C255.877 186.947 246.099 192.792 235.133 197.237C222.538 202.342 210.319 204.799 197.789 204.77C178.251 204.714 158.311 200.538 139.029 196.498C134.305 195.508 129.418 194.485 124.701 193.56C111.173 190.91 99.7225 189.572 89.6939 189.47C52.7676 189.096 19.8715 195.38 -0.558014 206.706L-0.792969 206.145C9.21394 200.597 22.7125 196.094 38.2425 193.122C53.8013 190.144 71.5958 188.667 89.6993 188.85C99.7568 188.951 111.237 190.292 124.793 192.948C129.514 193.873 134.401 194.896 139.127 195.886C158.385 199.92 178.299 204.091 197.791 204.147C197.878 204.147 197.966 204.147 198.053 204.147C225.934 204.147 247.175 191.448 264.254 181.236L264.505 181.087C268.978 178.428 272.674 176.254 276.136 174.239C293.241 164.324 307.605 156.343 323.747 151.363C344.177 145.059 366.213 140.93 387.476 139.419C406.42 138.074 424.288 139.099 442.106 142.556C461.307 146.281 479.847 152.699 498.786 162.181C525.142 175.374 551.535 194.9 577.235 220.221C578.736 221.704 580.238 223.19 581.738 224.676C593.73 236.539 606.129 248.809 618.722 260.199C653.675 291.819 684.547 312.9 715.88 326.546C727.701 331.703 740.096 336.282 752.718 340.161C768.389 344.923 783.694 348.488 798.211 350.754C824.212 354.817 849.667 357.635 875.204 347.641C889.062 342.217 900.542 333.251 910.296 320.227C927.917 296.702 937.543 264.105 946.037 235.342C950.013 221.877 953.769 209.156 958.005 198.468C959.635 194.355 961.271 190.101 962.852 185.986C967.797 173.12 972.909 159.819 979.179 147.277C986.395 132.733 994.552 120.432 1003.42 110.716C1013.53 99.6437 1024.3 92.273 1035.43 88.8117C1042.34 86.6661 1049.39 85.6202 1056.96 85.6202C1057.12 85.6202 1057.29 85.6202 1057.45 85.6223C1081 85.7634 1105.22 98.0438 1123.7 108.726C1143.38 120.108 1162.67 135.954 1179.48 154.55C1198.21 175.21 1215.14 200.161 1229.8 228.712C1242.95 254.333 1254.12 282.486 1263 312.392L1262.48 312.593C1249.28 268.095 1224.1 204.635 1179.11 155.001C1162.34 136.445 1143.09 120.637 1123.46 109.282C1105.03 98.6289 1080.88 86.3839 1057.45 86.2448C1049.74 86.193 1042.59 87.2346 1035.58 89.4135C1014.94 95.8276 995.081 116.487 979.649 147.586C973.394 160.099 968.286 173.386 963.347 186.237C961.766 190.354 960.128 194.61 958.498 198.725C954.273 209.387 950.521 222.09 946.55 235.541C938.042 264.356 928.398 297.015 910.708 320.632C900.889 333.742 889.332 342.769 875.38 348.229C863.555 352.854 850.773 355.105 836.324 355.105Z" fill="#E8E8E8" fill-opacity="0.5"/>
<path d="M850.787 358.027C847.983 358.027 845.116 357.924 842.181 357.716C829.335 356.809 816.85 354.089 804.127 351.142C789.378 347.727 774.482 343.157 758.589 337.173C746.014 332.396 733.683 326.955 721.937 320.998C692.141 305.908 662.556 283.694 626.011 248.973C616.935 240.351 607.862 231.308 599.088 222.562C594.311 217.802 589.374 212.877 584.481 208.069C558.518 182.621 531.289 164.136 503.551 153.125C466.901 138.577 429.234 135.912 388.393 144.981C366.816 149.772 344.836 157.286 324.831 166.709C308.761 174.279 294.762 184.909 279.94 196.165L278.915 196.943C276.6 198.707 274.26 200.495 271.891 202.305C270.526 203.349 269.152 204.399 267.766 205.457C259.124 212.091 249.789 219.011 239.085 224.338C226.656 230.522 214.363 233.564 201.499 233.639C180.083 233.759 158.238 228.044 137.114 222.512C134.1 221.721 130.981 220.906 127.953 220.132C113.761 216.5 102.572 214.411 92.7367 213.552C56.443 210.383 22.1914 212.616 -1.23817 219.679L-1.38818 219.028C22.1028 211.946 56.4249 209.705 92.7819 212.879C102.644 213.741 113.862 215.836 128.082 219.474C131.111 220.25 134.23 221.066 137.246 221.856C158.111 227.32 179.68 232.966 200.812 232.966C201.04 232.966 201.267 232.966 201.497 232.964C228.83 232.806 248.287 219.596 267.443 204.897C268.829 203.838 270.203 202.788 271.567 201.745C273.936 199.933 276.275 198.146 278.592 196.38L279.617 195.602C294.463 184.328 308.486 173.679 324.609 166.084C344.65 156.642 366.668 149.116 388.283 144.317C429.227 135.226 466.995 137.898 503.745 152.486C531.551 163.526 558.843 182.052 584.864 207.557C589.757 212.367 594.696 217.289 599.473 222.051C608.243 230.796 617.314 239.837 626.385 248.453C662.886 283.134 692.43 305.316 722.174 320.381C733.903 326.328 746.216 331.763 758.773 336.532C774.643 342.508 789.517 347.071 804.245 350.48C826.601 355.658 854.424 362.103 882.131 352.176C896.376 347.073 907.932 338.051 917.458 324.592C934.909 299.94 943 265.267 950.141 234.678C953.242 221.389 956.172 208.837 959.591 198.42C960.923 194.361 962.259 190.163 963.549 186.103C967.879 172.484 972.358 158.402 978.108 145.01C984.595 129.789 992.144 116.697 1000.55 106.098C1010.07 94.087 1020.47 85.6061 1031.45 80.8894C1038.51 77.8619 1045.73 75.9964 1053.55 75.185C1064.02 74.0977 1075.16 75.2597 1087.61 78.7293C1098.15 81.6676 1109.44 86.2286 1122.14 92.6759C1142.63 103.074 1162.56 118.341 1179.79 136.823C1199.02 157.385 1216.08 182.583 1230.5 211.713C1243.49 237.944 1254.07 266.742 1261.95 297.31L1261.39 297.501C1244.75 232.966 1215.63 176.078 1179.39 137.317C1162.21 118.884 1142.33 103.661 1121.91 93.2943C1094.54 79.4037 1072.84 73.8611 1053.6 75.8573C1045.84 76.6625 1038.66 78.5155 1031.66 81.5203C1005.52 92.7402 988.394 122.402 978.634 145.306C972.898 158.666 968.425 172.731 964.1 186.333C962.808 190.396 961.472 194.596 960.14 198.657C956.732 209.043 953.806 221.58 950.708 234.852C943.553 265.508 935.444 300.253 917.913 325.017C908.311 338.582 896.663 347.677 882.304 352.821C872.572 356.307 862.193 358.027 850.787 358.027Z" fill="#E8E8E8" fill-opacity="0.5"/>
<path d="M863.319 361.376C844.207 361.376 825.833 355.738 810.113 350.916C795.324 346.38 780.436 340.711 764.597 333.587C752.092 327.922 739.841 321.626 728.184 314.872C693.24 294.648 662.088 265.62 633.631 237.261C627.82 231.472 621.95 225.504 616.275 219.733C608.396 211.719 600.246 203.433 592.081 195.448C565.729 169.749 537.621 152.27 508.538 143.499C470.916 132.154 431.906 134.252 389.279 149.915C367.332 157.979 345.373 168.883 325.777 181.45C310.663 191.141 297.874 203.375 284.336 216.328C283.376 217.245 282.415 218.167 281.448 219.088L280.924 219.59C277.633 222.742 274.23 226 270.78 229.27C262.513 237.141 253.41 245.282 242.881 251.501C230.658 258.72 218.336 262.32 205.206 262.507C182.16 262.837 158.67 255.398 135.956 248.203C134.364 247.699 132.779 247.197 131.202 246.701C116.223 241.982 105.296 239.185 95.7753 237.629C60.3923 231.848 24.7817 230.03 -1.92626 232.642L-1.98047 231.918C24.7709 229.299 60.4339 231.119 95.8638 236.909C105.412 238.469 116.362 241.273 131.368 246C132.946 246.496 134.531 246.998 136.125 247.504C158.795 254.684 182.239 262.104 205.197 261.781C233.71 261.374 253.791 244.497 270.375 228.71C273.825 225.44 277.228 222.182 280.519 219.032L281.043 218.53C282.01 217.606 282.971 216.687 283.931 215.77C297.493 202.794 310.303 190.539 325.468 180.815C345.1 168.225 367.1 157.302 389.086 149.224C409.295 141.799 428.277 137.512 447.114 136.118C468.127 134.563 488.846 136.811 508.697 142.797C537.872 151.596 566.064 169.124 592.49 194.894C600.66 202.884 608.811 211.171 616.693 219.187C622.368 224.958 628.234 230.924 634.043 236.712C662.471 265.039 693.585 294.036 728.466 314.222C740.106 320.966 752.34 327.254 764.826 332.91C780.642 340.024 795.507 345.685 810.274 350.215C832.948 357.17 861.167 365.828 889.05 356.718C903.681 351.937 915.313 342.858 924.612 328.964C941.882 303.152 948.345 266.346 954.047 233.871C956.338 220.823 958.502 208.499 961.169 198.379C962.156 194.635 963.146 190.767 964.104 187.026C967.853 172.392 971.729 157.259 977.03 142.748C982.797 126.838 989.739 112.951 997.662 101.478C1006.6 88.5318 1016.63 78.9408 1027.46 72.9707C1034.5 69.0945 1041.75 66.4072 1049.64 64.7534C1060.26 62.5268 1072.04 62.6015 1084.66 64.9754C1095.71 67.0547 1107.8 70.9745 1120.58 76.6291C1141.86 86.0438 1162.44 100.729 1180.1 119.098C1199.82 139.564 1217.02 165.005 1231.2 194.716C1244.02 221.557 1254.02 251.003 1260.91 282.233L1260.29 282.411C1245.69 216.237 1217.06 158.429 1179.67 119.637C1162.08 101.329 1141.56 86.6912 1120.35 77.3077C1092.86 65.1456 1069.76 61.2714 1049.75 65.4693C1041.92 67.1107 1034.72 69.7793 1027.74 73.6265C1001.95 87.8304 986.249 119.206 977.614 143.028C972.326 157.501 968.454 172.614 964.711 187.229C963.754 190.97 962.761 194.84 961.775 198.588C959.116 208.675 956.955 220.982 954.667 234.014C951.923 249.637 948.815 267.344 944.302 283.945C939.131 302.965 932.855 317.835 925.114 329.406C920.637 336.096 915.494 341.79 909.824 346.33C903.727 351.213 896.796 354.944 889.223 357.417C880.559 360.25 871.864 361.376 863.319 361.376Z" fill="#E8E8E8" fill-opacity="0.5"/>
<path d="M874.615 365.051C868.297 365.051 861.677 364.346 854.684 362.937C840.913 360.162 827.731 355.128 816.099 350.69C801.438 345.093 786.131 338.131 770.604 329.999C758.179 323.454 746.007 316.303 734.43 308.742C701.2 287.063 672.57 258.238 641.25 225.547C638.467 222.642 635.64 219.679 632.908 216.811C622.145 205.525 611.018 193.855 599.681 182.828C572.892 156.827 543.905 140.357 513.524 133.874C475.203 125.696 433.697 132.752 390.165 154.847C367.827 166.186 345.888 180.479 326.722 196.185C312.291 208.011 300.412 221.953 287.835 236.716C286.557 238.216 285.274 239.72 283.984 241.231C280.772 244.995 277.313 249.035 273.794 253.08C266.415 261.59 257.422 271.287 246.678 278.659C234.65 286.914 222.298 291.075 208.917 291.375C184.421 291.929 159.486 282.616 135.371 273.611L134.453 273.268C122.646 268.861 110.156 264.408 98.8171 261.704C64.2547 253.464 28.2338 247.743 -2.60742 245.595L-2.56586 244.819C28.3079 246.969 64.3613 252.694 98.9544 260.942C110.326 263.654 122.838 268.114 134.663 272.527L135.581 272.87C159.643 281.855 184.527 291.145 208.904 290.595C237.056 289.96 256.499 271.924 273.315 252.526C276.834 248.483 280.29 244.443 283.501 240.681C284.792 239.172 286.075 237.666 287.352 236.168C299.951 221.381 311.852 207.413 326.33 195.548C345.532 179.811 367.513 165.49 389.892 154.131C410.316 143.766 430.415 136.624 449.626 132.905C471.577 128.658 493.118 128.724 513.651 133.104C544.147 139.612 573.241 156.14 600.12 182.23C611.466 193.267 622.599 204.942 633.367 216.235C636.099 219.1 638.926 222.063 641.709 224.969C672.999 257.628 701.597 286.422 734.768 308.063C746.329 315.612 758.483 322.753 770.89 329.289C786.395 337.409 801.677 344.361 816.316 349.949C839.263 358.71 867.822 369.61 895.983 361.258C911.003 356.803 922.71 347.67 931.776 333.336C948.856 306.328 953.799 265.622 957.772 232.912C959.319 220.171 960.779 208.138 962.76 198.343C963.383 195.255 964.014 192.074 964.623 188.997C967.786 173.01 971.059 156.478 975.966 140.492C983.543 115.614 997.939 82.3334 1023.48 65.0624C1030.54 60.2939 1037.82 56.7828 1045.73 54.3301C1066.44 47.8205 1091.1 49.9268 1119.02 60.5865C1141.11 69.0175 1162.33 83.1219 1180.41 101.376C1200.64 121.745 1217.97 147.431 1231.92 177.725C1238.32 191.62 1243.97 206.461 1248.73 221.835C1253.27 236.521 1257.02 251.77 1259.87 267.161L1259.21 267.323C1246.65 199.505 1218.51 140.778 1179.97 101.96C1161.95 83.7735 1140.81 69.7231 1118.81 61.3231C1091.02 50.7111 1066.49 48.6112 1045.91 55.0792C1038.05 57.5133 1030.83 60.9973 1023.83 65.7306C998.457 82.8812 984.145 115.991 976.605 140.747C971.709 156.692 968.444 173.201 965.283 189.167C964.674 192.244 964.045 195.428 963.419 198.517C961.446 208.279 959.986 220.295 958.442 233.018C956.443 249.477 954.179 268.132 950.308 285.739C945.86 305.972 939.977 321.69 932.323 333.792C927.957 340.696 922.85 346.519 917.146 351.096C911.001 356.029 903.936 359.702 896.151 362.009C889.317 364.039 882.18 365.051 874.615 365.051Z" fill="#E8E8E8" fill-opacity="0.5"/>
<path d="M885.024 368.932C877.452 368.932 869.465 367.805 860.935 365.546C847.113 361.887 833.815 355.816 822.082 350.458C807.311 343.714 792.013 335.623 776.611 326.407C764.267 318.989 752.177 310.983 740.675 302.61C709.026 279.587 681.881 249.914 653.141 218.501C651.719 216.947 650.297 215.39 648.871 213.834C635.506 199.242 621.687 184.152 607.282 170.207C580.026 143.877 550.161 128.413 518.515 124.246C478.766 119.011 435.881 130.965 391.05 159.774C368.625 174.183 346.115 192.346 327.667 210.916C313.736 224.938 302.564 240.715 290.735 257.419C289.334 259.397 287.93 261.38 286.515 263.368C283.688 267.346 280.325 272.063 276.804 276.888C270.284 285.846 261.399 297.23 250.472 305.793C238.636 315.071 226.257 319.8 212.624 320.246C201.419 320.568 189.054 318.582 174.82 314.173C162.599 310.388 150.777 305.441 137.696 299.838C125.756 294.661 113.153 289.313 101.847 285.781C68.3564 275.319 32.9808 266.157 -3.29492 258.546L-3.1648 257.73C33.1326 265.344 68.5281 274.514 102.037 284.98C113.374 288.523 125.994 293.878 137.949 299.06C159.875 308.454 187.163 320.149 212.604 319.416C241.691 318.462 260.383 298.155 276.25 276.352C279.768 271.532 283.13 266.817 285.955 262.841C287.37 260.853 288.774 258.87 290.173 256.894C302.021 240.163 313.214 224.359 327.19 210.292C345.676 191.685 368.229 173.486 390.697 159.05C435.664 130.154 478.697 118.168 518.598 123.423C533.897 125.437 548.925 130.117 563.26 137.33C578.642 145.068 593.61 155.918 607.748 169.574C622.17 183.534 635.997 198.632 649.37 213.234C650.795 214.793 652.22 216.347 653.642 217.901C682.354 249.287 709.476 278.932 741.064 301.911C752.549 310.272 764.621 318.267 776.947 325.673C792.327 334.874 807.602 342.954 822.351 349.688C845.532 360.271 874.381 373.441 902.907 365.803C918.359 361.665 930.145 352.477 938.932 337.715C955.86 309.518 958.875 266.446 961.299 231.837C962.166 219.46 962.985 207.769 964.342 198.314C964.622 196.364 964.902 194.403 965.182 192.432C967.716 174.625 970.337 156.211 974.893 138.241C981.396 112.393 994.412 77.3452 1019.5 57.1588C1026.49 51.527 1033.8 47.1942 1041.82 43.9115C1052.97 39.3068 1065.4 37.1425 1078.76 37.4745C1090.95 37.7775 1103.98 40.1576 1117.46 44.5464C1140.34 51.9898 1162.21 65.5131 1180.72 83.6535C1201.44 103.923 1218.9 129.857 1232.62 160.733C1238.91 174.899 1244.36 190.045 1248.81 205.749C1253.08 220.79 1256.45 236.382 1258.82 252.092L1258.11 252.233C1247.76 183.774 1219.38 122.559 1180.25 84.2843C1161.82 66.2228 1140.04 52.7555 1117.26 45.3412C1089.17 36.1984 1063.17 35.9743 1042.06 44.6896C1034.1 47.9475 1026.85 52.2471 1019.91 57.8353C994.997 77.8827 982.055 112.75 975.585 138.469C971.042 156.391 968.425 174.779 965.895 192.562C965.614 194.534 965.334 196.497 965.054 198.447C963.7 207.866 962.884 219.543 962.018 231.902C959.587 266.61 956.563 309.807 939.526 338.184C935.29 345.299 930.224 351.254 924.472 355.88C918.282 360.856 911.082 364.467 903.072 366.612C897.288 368.156 891.299 368.932 885.024 368.932Z" fill="#E8E8E8" fill-opacity="0.5"/>
<path d="M894.806 372.972C886.178 372.972 877.037 371.37 867.185 368.154C853.247 363.603 839.866 356.496 828.063 350.227C813.146 342.305 797.854 333.081 782.613 322.817C770.358 314.538 758.349 305.675 746.916 296.48C718.764 273.845 694.704 246.116 669.23 216.758C665.066 211.958 660.759 206.997 656.487 202.118C641.469 184.978 628.644 170.844 614.878 157.587C587.136 130.907 556.394 116.45 523.504 114.616C482.175 112.31 437.906 129.16 391.928 164.696C369.088 182.351 346.598 203.994 328.603 225.641C315.047 241.949 304.449 259.702 293.229 278.496C291.839 280.824 290.444 283.161 289.04 285.499C286.539 289.672 283.228 295.171 279.81 300.685C265.428 323.942 246.638 347.887 216.328 349.111C215.383 349.146 214.434 349.163 213.487 349.163C189.819 349.163 165.655 338.408 140.935 326.399L139.392 325.644C127.148 319.643 115.581 313.976 104.875 309.85C64.5271 294.304 25.5061 281.181 -3.98145 271.486L-3.76999 270.637C25.7248 280.336 64.7566 293.461 105.119 309.014C115.854 313.15 127.433 318.825 139.694 324.832L141.235 325.588C166.861 338.036 191.886 349.14 216.301 348.231C246.274 347.019 264.907 323.259 279.183 300.176C282.599 294.667 285.906 289.172 288.407 285.001C289.812 282.66 291.205 280.326 292.595 277.998C303.833 259.175 314.447 241.393 328.047 225.033C346.078 203.34 368.613 181.654 391.498 163.963C412.739 147.545 433.987 134.939 454.652 126.492C478.362 116.799 501.54 112.508 523.54 113.734C556.601 115.577 587.498 130.104 615.37 156.908C629.156 170.187 641.993 184.335 657.026 201.489C661.3 206.368 665.607 211.331 669.772 216.131C695.221 245.46 719.257 273.163 747.355 295.752C758.772 304.936 770.763 313.785 783 322.052C798.219 332.303 813.487 341.512 828.383 349.422C851.765 361.842 880.866 377.297 909.83 370.339C925.661 366.535 937.521 357.293 946.084 342.085C962.799 312.604 963.804 267.108 964.612 230.551C964.876 218.623 965.125 207.356 965.922 198.277L965.94 198.07C967.728 177.74 969.577 156.719 973.815 135.979C977.485 117.888 982.598 101.624 989.008 87.6335C996.237 71.8607 1005.15 58.9454 1015.5 49.2444C1022.43 42.7535 1029.76 37.5969 1037.9 33.482C1059.91 22.2994 1086.88 20.5729 1115.89 28.4935C1127.57 31.6809 1139.08 36.5096 1150.13 42.8427C1161.23 49.2132 1171.63 56.9803 1181.02 65.9239C1202.25 86.0958 1219.85 112.275 1233.32 143.735C1245.43 172.013 1253.89 204.27 1257.78 237.017L1257.02 237.135C1248.7 167.047 1220.82 104.89 1180.53 66.6025C1161.69 48.6696 1139.28 35.7874 1115.72 29.3568C1086.87 21.4818 1060.07 23.1896 1038.21 34.2955C1030.13 38.3792 1022.86 43.4943 1015.99 49.9333C996.664 68.0467 982.339 97.8719 974.565 136.184C970.337 156.871 968.492 177.862 966.707 198.163L966.688 198.37C965.893 207.416 965.644 218.667 965.38 230.578C964.569 267.247 963.56 312.88 946.727 342.568C942.599 349.901 937.57 355.986 931.783 360.65C925.542 365.68 918.21 369.231 909.987 371.208C905.089 372.383 900.041 372.972 894.806 372.972Z" fill="#E8E8E8" fill-opacity="0.5"/>
<path d="M216.89 378.054C206.307 378.054 194.782 375.687 181.775 370.852C168.851 366.048 156.07 359.416 144.181 352.966C142.029 351.792 139.893 350.619 137.771 349.455C127.209 343.66 117.233 338.186 107.909 333.921C70.7318 316.924 35.2946 301.647 1.02321 286.877L-4.65527 284.428L-4.36973 283.555L1.30875 286.003C35.582 300.778 71.0245 316.055 108.209 333.056C117.558 337.331 127.547 342.811 138.122 348.615C140.242 349.779 142.378 350.951 144.528 352.124C168.932 365.363 194.859 378.193 220.006 377.05C250.917 375.572 269.442 347.924 282.126 324.004C285.375 317.887 288.505 311.79 290.869 307.163C292.174 304.613 293.47 302.065 294.762 299.523C305.479 278.45 315.602 258.546 328.914 239.779C346.486 215.011 369 189.831 392.31 168.883C413.936 149.448 435.759 134.093 457.175 123.244C481.74 110.8 505.733 104.342 528.488 104.049C562.729 103.464 594.532 116.99 623 144.246C638.781 159.373 652.93 175.737 664.692 189.75C671.092 197.376 677.491 205.193 683.681 212.753C705.591 239.515 728.247 267.186 753.656 289.599C765.005 299.614 776.919 309.317 789.062 318.437C804.09 329.698 819.35 340.037 834.423 349.163C857.983 363.427 887.302 381.179 916.759 374.879C932.972 371.412 944.905 362.115 953.242 346.459C969.736 315.642 968.622 267.653 967.726 229.094C967.462 217.692 967.211 206.92 967.513 198.248C968.19 178.699 969.212 155.978 972.748 133.725C975.729 114.869 980.229 97.8097 986.124 83.0226C992.793 66.2953 1001.34 52.2719 1011.52 41.3404C1018.27 34.0962 1025.83 27.9477 1033.99 23.063C1045.64 16.07 1058.71 11.6729 1072.85 9.99618C1086.08 8.42534 1100.04 9.25123 1114.33 12.4489C1126.38 15.1465 1138.25 19.5831 1149.62 25.6382C1161.07 31.7306 1171.74 39.3213 1181.34 48.1985C1192.4 58.4204 1202.57 70.4912 1211.57 84.0767C1220.1 96.9485 1227.65 111.304 1234.03 126.743C1245.96 155.626 1253.81 188.549 1256.74 221.948L1255.93 222.041C1249.65 150.32 1222.28 87.2226 1180.83 48.9269C1161.84 31.3675 1138.17 18.7385 1114.17 13.3661C1084.5 6.72377 1056.9 10.3635 1034.37 23.891C1026.27 28.7363 1018.77 34.837 1012.07 42.023C992.889 62.6204 979.925 93.5288 973.547 133.893C970.018 156.086 969 178.767 968.324 198.285C968.024 206.926 968.274 217.681 968.539 229.069C968.98 248.092 969.481 269.654 967.804 290.498C965.857 314.685 961.321 333.149 953.936 346.947C949.917 354.496 944.925 360.711 939.102 365.417C932.813 370.501 925.345 373.993 916.909 375.796C912.653 376.707 908.4 377.12 904.173 377.12C878.858 377.12 854.328 362.267 834.045 349.987C818.951 340.846 803.667 330.493 788.619 319.215C776.458 310.083 764.528 300.365 753.162 290.336C727.701 267.877 705.022 240.177 683.09 213.39C676.902 205.832 670.504 198.018 664.108 190.396C652.363 176.399 638.234 160.058 622.481 144.96C594.167 117.849 562.55 104.402 528.501 104.979C475.029 105.668 425.199 140.507 392.812 169.614C369.549 190.52 347.081 215.645 329.547 240.364C316.274 259.075 306.166 278.948 295.465 299.987C294.173 302.529 292.875 305.078 291.57 307.63C289.205 312.259 286.073 318.36 282.821 324.484C277.497 334.525 269.138 349.142 258.067 360.098C252.69 365.419 246.969 369.6 241.061 372.528C234.473 375.792 227.399 377.627 220.04 377.977C218.997 378.029 217.947 378.054 216.89 378.054Z" fill="#E8E8E8" fill-opacity="0.5"/>
<path d="M220.288 406.943C209.692 406.943 198.191 404.393 185.252 399.189C171.857 393.802 158.613 386.228 147.426 379.527C143.988 377.465 140.558 375.373 137.24 373.35C127.965 367.695 119.203 362.352 110.942 357.99C81.2759 342.323 51.8028 327.028 23.2984 312.234C13.8698 307.341 4.12131 302.282 -5.32715 297.368L-4.97293 296.47C4.47553 301.384 14.224 306.443 23.6526 311.336C52.157 326.129 81.6337 341.427 111.302 357.096C119.585 361.47 128.357 366.817 137.643 372.48C140.959 374.503 144.39 376.593 147.824 378.656C171.025 392.546 197.938 407.25 223.708 405.866C255.348 404.127 273.119 373.937 285.068 347.83C288.132 341.142 291.094 334.427 293.331 329.325C294.481 326.706 295.623 324.089 296.763 321.479C307.014 297.999 316.696 275.823 329.784 254.526C346.807 226.828 369.302 198.161 393.122 173.805C426.295 140.033 477.565 98.8387 533.435 94.371C568.967 91.4534 601.669 103.974 630.631 131.59C643.643 144.003 656.511 158.321 672.357 178.02C680.365 187.974 688.312 198.291 695.997 208.266C715.991 234.219 736.662 261.056 759.956 283.457C771.241 294.312 783.073 304.868 795.124 314.832C809.716 326.886 824.971 338.353 840.463 348.916C864.26 365.041 893.876 385.113 923.687 379.432C940.032 376.381 952.383 366.763 960.4 350.847C976.665 318.636 973.175 265.937 970.625 227.459C969.91 216.66 969.234 206.461 969.102 198.233C968.805 179.948 968.831 155.837 971.681 131.486C976.6 89.2891 988.664 56.3035 1007.54 33.4506C1014.15 25.3993 1021.74 18.4042 1030.08 12.6583C1041.95 4.47414 1055.35 -1.03106 1069.89 -3.7017C1083.6 -6.2167 1098.02 -6.17728 1112.76 -3.58342C1125.2 -1.34648 1137.43 2.70824 1149.12 8.46453C1160.92 14.2789 1171.86 21.687 1181.65 30.4833C1192.96 40.647 1203.29 52.7593 1212.36 66.486C1220.95 79.4947 1228.48 94.0535 1234.74 109.762C1246.49 139.253 1253.73 172.84 1255.69 206.893L1254.84 206.957C1250.62 133.598 1223.75 69.5592 1181.12 31.2614C1161.79 13.8867 1137.47 1.85746 1112.63 -2.60813C1082.02 -7.99297 1053.62 -2.42137 1030.53 13.5049C1022.25 19.2031 1014.73 26.1422 1008.16 34.1292C989.416 56.8306 977.428 89.6294 972.534 131.619C969.691 155.904 969.668 179.966 969.962 198.217C970.096 206.415 970.77 216.602 971.484 227.386C972.801 247.276 974.294 269.822 973.441 291.832C972.445 317.461 968.424 336.928 961.144 351.343C957.228 359.119 952.276 365.469 946.422 370.216C940.077 375.365 932.475 378.793 923.829 380.407C910.419 382.961 895.987 380.666 879.705 373.389C865.552 367.062 851.992 357.874 840.03 349.768C824.514 339.192 809.239 327.708 794.625 315.637C782.556 305.658 770.708 295.088 759.407 284.219C736.064 261.772 715.369 234.906 695.355 208.926C687.674 198.953 679.729 188.642 671.728 178.696C655.909 159.033 643.065 144.742 630.083 132.358C601.293 104.9 568.799 92.4536 533.493 95.3525C477.863 99.8036 426.763 140.872 393.689 174.542C369.916 198.847 347.468 227.455 330.482 255.095C317.429 276.331 307.762 298.476 297.528 321.921C296.387 324.533 295.245 327.15 294.096 329.769C291.856 334.876 288.892 341.597 285.826 348.291C273.771 374.63 255.821 405.09 223.746 406.852C222.605 406.912 221.45 406.943 220.288 406.943Z" fill="#E8E8E8" fill-opacity="0.5"/>
<path d="M223.754 435.835C194.801 435.835 164.423 415.418 137.493 397.317C129.217 391.756 121.401 386.502 113.973 382.059L-6 310.309L-5.58251 309.39L114.39 381.14C121.838 385.593 129.663 390.853 137.95 396.423C165.921 415.223 197.626 436.532 227.408 434.685C259.746 432.683 276.781 399.95 288.01 371.661C291.682 362.408 295.228 352.993 298.658 343.888C308.04 318.987 317.74 293.237 330.649 269.272C340.9 250.243 353.634 230.287 367.474 211.564C382.657 191.023 398.914 172.177 415.788 155.551C434.394 137.222 453.313 122.059 472.016 110.486C492.704 97.6873 513.085 89.331 532.596 85.6477C571.682 78.2708 607.231 89.4658 638.253 118.926C664.034 143.406 685.946 173.677 707.136 202.952C725.581 228.434 744.653 254.782 766.25 277.305C791.196 303.318 818.195 327.325 846.499 348.654C870.346 366.627 900.025 388.996 930.613 383.968C956.447 379.723 971.384 359.876 976.274 323.293C980.435 292.175 976.477 255.261 973.298 225.602C972.213 215.494 971.19 205.947 970.688 198.204C967.916 155.524 969.683 120.291 976.09 90.4951C980.088 71.9044 985.987 55.3328 993.622 41.2409C1002.15 25.4993 1013.1 12.3764 1026.17 2.23755C1037.47 -6.53383 1050.21 -12.9043 1064.04 -16.6976C1077.19 -20.3082 1091.05 -21.518 1105.21 -20.2937C1133.07 -17.8866 1160.33 -6.14994 1181.95 12.752C1193.51 22.8556 1204 35.0115 1213.14 48.8793C1221.8 62.0228 1229.3 76.7871 1235.44 92.7652C1247 122.864 1253.64 157.118 1254.64 191.819L1253.74 191.855C1251.61 117.957 1224.57 51.3112 1181.4 13.58C1135.56 -26.4899 1070.49 -30.8995 1026.67 3.09872C983.267 36.7774 965.248 100.572 971.586 198.128C972.087 205.845 973.11 215.38 974.192 225.475C977.378 255.199 981.345 292.191 977.165 323.45C974.888 340.476 970.312 354.16 963.565 364.122C959.77 369.723 955.196 374.3 949.967 377.724C944.403 381.368 937.935 383.815 930.74 384.997C927.799 385.481 924.808 385.724 921.767 385.724C910.683 385.724 898.876 382.505 885.939 375.985C871.365 368.64 857.301 358.04 846 349.524C817.658 328.163 790.621 304.125 765.639 278.074C743.994 255.504 724.902 229.125 706.437 203.616C685.273 174.378 663.389 144.144 637.673 119.727C606.859 90.4681 571.554 79.3457 532.737 86.6728C454.218 101.493 373.335 192 331.412 269.82C318.537 293.719 308.85 319.433 299.481 344.301C296.049 353.41 292.501 362.831 288.825 372.092C281.37 390.874 274.007 404.323 265.654 414.412C260.44 420.708 254.783 425.671 248.841 429.164C242.233 433.046 235.037 435.254 227.45 435.725C226.225 435.798 224.99 435.835 223.754 435.835Z" fill="#E8E8E8" fill-opacity="0.5"/>
</g>
</g>
<defs>
<clipPath id="clip0_516_78">
<rect width="1218" height="466" fill="white"/>
</clipPath>
</defs>
</svg>
