<svg width="56" height="56" viewBox="0 0 56 56" fill="none" xmlns="http://www.w3.org/2000/svg">
<rect width="56" height="56" rx="12" fill="#3A3B7B" fill-opacity="0.1"/>
<path d="M30 18H22C21.4696 18 20.9609 18.2107 20.5858 18.5858C20.2107 18.9609 20 19.4696 20 20V36C20 36.5304 20.2107 37.0391 20.5858 37.4142C20.9609 37.7893 21.4696 38 22 38H34C34.5304 38 35.0391 37.7893 35.4142 37.4142C35.7893 37.0391 36 36.5304 36 36V24L30 18Z" stroke="#004D95" stroke-width="2" stroke-linecap="round" stroke-linejoin="round"/>
<path d="M30 18V24H36" stroke="#004D95" stroke-width="2" stroke-linecap="round" stroke-linejoin="round"/>
<path d="M32 29H24" stroke="#004D95" stroke-width="2" stroke-linecap="round" stroke-linejoin="round"/>
<path d="M32 33H24" stroke="#004D95" stroke-width="2" stroke-linecap="round" stroke-linejoin="round"/>
<path d="M26 25H25H24" stroke="#004D95" stroke-width="2" stroke-linecap="round" stroke-linejoin="round"/>
</svg>
