<svg width="56" height="56" viewBox="0 0 56 56" fill="none" xmlns="http://www.w3.org/2000/svg">
<rect width="56" height="56" rx="12" fill="#3A3B7B" fill-opacity="0.1"/>
<g clip-path="url(#clip0_587_56)">
<path d="M34 20H22C20.8954 20 20 20.8954 20 22V34C20 35.1046 20.8954 36 22 36H34C35.1046 36 36 35.1046 36 34V22C36 20.8954 35.1046 20 34 20Z" stroke="#004D95" stroke-width="2" stroke-linecap="round" stroke-linejoin="round"/>
<path d="M31 25H25V31H31V25Z" stroke="#004D95" stroke-width="2" stroke-linecap="round" stroke-linejoin="round"/>
<path d="M25 17V20" stroke="#004D95" stroke-width="2" stroke-linecap="round" stroke-linejoin="round"/>
<path d="M31 17V20" stroke="#004D95" stroke-width="2" stroke-linecap="round" stroke-linejoin="round"/>
<path d="M25 36V39" stroke="#004D95" stroke-width="2" stroke-linecap="round" stroke-linejoin="round"/>
<path d="M31 36V39" stroke="#004D95" stroke-width="2" stroke-linecap="round" stroke-linejoin="round"/>
<path d="M36 25H39" stroke="#004D95" stroke-width="2" stroke-linecap="round" stroke-linejoin="round"/>
<path d="M36 30H39" stroke="#004D95" stroke-width="2" stroke-linecap="round" stroke-linejoin="round"/>
<path d="M17 25H20" stroke="#004D95" stroke-width="2" stroke-linecap="round" stroke-linejoin="round"/>
<path d="M17 30H20" stroke="#004D95" stroke-width="2" stroke-linecap="round" stroke-linejoin="round"/>
</g>
<defs>
<clipPath id="clip0_587_56">
<rect width="24" height="24" fill="white" transform="translate(16 16)"/>
</clipPath>
</defs>
</svg>
